<?xml version="1.0" encoding="utf-8"?>
<!-- Generator: Adobe Illustrator 22.1.0, SVG Export Plug-In . SVG Version: 6.00 Build 0)  -->
<svg version="1.1" id="圖層_1" xmlns="http://www.w3.org/2000/svg" xmlns:xlink="http://www.w3.org/1999/xlink" x="0px" y="0px"
	 viewBox="0 0 283.4 283.4" style="enable-background:new 0 0 283.4 283.4;" xml:space="preserve">
<style type="text/css">
	.st0{fill:#4A5559;}
	.st1{fill:#FEFEFE;}
	.st2{fill:#E1E1E1;}
	.st3{fill:#FDFDFD;}
	.st4{fill:#FAFAFA;}
	.st5{fill:#B9B9B9;}
	.st6{fill:#B7B7B7;}
	.st7{fill:#A2A2A2;}
	.st8{fill:#CECECE;}
</style>
<path class="st0" d="M144.1,258c-22,0-40.5-4.3-58-13.2c-10-5.1-19-11.4-27.2-19.1c-13.1-12.4-22.7-27-28.4-44.1
	c-2.9-8.8-4.5-17.8-5-27c-0.9-18.4,2.6-35.9,10.8-52.4c4.7-9.3,10.6-17.8,17.8-25.3C73,57.1,95.9,45.3,122.7,41.2
	c24.7-3.8,48.6-0.6,71.2,10.1c22.3,10.6,39.8,26.4,51.7,48.2c6.5,11.9,10.4,24.7,11.8,38.3c1.7,17.1-0.4,33.8-6.8,49.8
	c-6.5,16.3-16.6,30-29.9,41.5c-17.1,14.7-36.8,23.7-59,27.4C155.1,257.5,148.4,258.1,144.1,258z"/>
<path class="st1" d="M30.5,148.9c0.2-21.7,7-41.2,19.6-58.7c13.6-19,32.2-31.3,53.9-39.1c11.4-4.1,23.2-6.1,35.4-6.3
	c26.9-0.4,51.1,7.5,72.5,23.6c22.3,16.8,35.7,39.3,40,66.9c3.1,19.5-0.3,38.2-8.9,56c-5.5,11.5-12.8,21.7-22,30.5
	c-7.1,6.8-15.1,12.3-23.8,17c-12.4,6.7-25.5,11.2-39.4,13.1c-28.3,3.8-54.4-2.1-78.6-17.1c-16.6-10.3-29.2-24.3-38-41.6
	c-6.1-11.9-9.7-24.5-10.6-37.9C30.6,153.1,30.5,151,30.5,148.9z"/>
<path class="st0" d="M247.3,148.9c-0.2,23.9-8.2,44.9-24,62.8c-16.9,19.1-38.2,30.8-63.4,34.9c-33.2,5.3-63.1-2.8-89-24.3
	c-17.9-14.9-29.4-33.9-33.4-56.9c-4.6-26.6,1.2-50.9,17.2-72.6c15.8-21.3,37.1-34.4,62.9-40.4c9.1-2.1,18.3-3,27.6-2.6
	c26.3,1.1,49.4,10.1,69.1,27.5c14.4,12.7,24.3,28.3,29.5,46.8C246.3,132.1,247.3,140.4,247.3,148.9z"/>
<path class="st2" d="M137.5,225.3c-19.7-0.9-36.9-8-51.6-21.1c-7.5-6.7-13.8-14.4-18.2-23.4c-3.5-7.1-5.8-14.6-6.9-22.5
	c-0.3-2.3-0.5-4.5-0.5-6.8c-0.1-1.8-0.1-3.7,0-5.5c0.9-19.3,8.4-35.7,22.1-49.3c6.9-6.8,14.5-12.4,23.3-16.6
	c7.8-3.7,16-6.1,24.6-7.2c2.5-0.3,5.1-0.5,7.6-0.7c2.7-0.1,5.3-0.1,8,0c10.4,0.5,20.3,2.8,29.9,6.9c6.9,3,13.2,6.9,19,11.7
	c10.6,8.8,19.1,19.2,23.9,32.3c2,5.2,3.4,10.6,4.1,16.2c0.4,3.6,0.7,7.1,0.7,10.7c-0.2,7.8-1.5,15.4-4.1,22.7
	c-2.8,7.9-6.8,15.2-12.2,21.6c-8,9.6-17.4,17.4-28.7,22.8c-8.8,4.2-18.2,6.8-27.9,7.8c-1.4,0.1-2.9,0.2-4.3,0.2
	C143.2,225.5,140.3,225.4,137.5,225.3z"/>
<path class="st1" d="M81.7,87.7c0,0,0,0.1,0,0.1c0.1,0.8,0.8,1.7,0.3,2.3c-0.8,0.9-1.8,1.6-2.8,2.4c-0.6,0.5-0.7-0.1-0.8-0.5
	c-0.4-1.3-0.8-2.5-1.2-3.8c-1.1-3.6-2.1-7.1-3.3-10.6c-0.2-0.8-0.1-1.2,0.5-1.7c2.7-2.2,2.7-2.3,5.8-0.5c3.6,2.1,7.3,4.2,10.9,6.2
	c0.9,0.5,0.9,0.9,0.1,1.4c-0.2,0.2-0.5,0.3-0.7,0.5c-1.2,1.3-2.5,1.8-4.1,0.6c-0.4-0.3-0.8-0.4-1.2,0c-1.1,0.9-2.2,1.8-3.3,2.8
	C81.7,87.1,81.6,87.4,81.7,87.7z"/>
<path class="st1" d="M201.5,76.5c1.9,0.3,3.8,1.2,4.9,3.2c0.5,0.9,0.7,0.7,1.2,0c0.5-0.8,1.1-1.6,1.6-2.4c0.4-0.6,0.7-0.8,1.3-0.3
	c0.7,0.6,1.5,1.2,2.2,1.8c0.5,0.4,0.5,0.7,0.1,1.2c-3,3.6-5.9,7.2-8.8,10.7c-0.4,0.5-0.8,0.6-1.3,0.2c-0.5-0.4-1.1-0.8-1.6-1.2
	c-0.1-0.1-0.4-0.2-0.3-0.3c0.4-1.6-0.9-1.1-1.6-1.3c-2.4-0.6-3.6-2.1-3.5-4.6c0.1-2.5,1.2-4.6,3.2-6.2
	C199.5,76.8,200.4,76.6,201.5,76.5z"/>
<path class="st1" d="M153.5,57.4c1,0,1.9,0.1,2.7,0.7c1,0.7,1.2,0.2,1.2-0.7c0.1-0.9,0.3-1.8,0.4-2.7c0.1-0.6,0.4-0.8,0.9-0.6
	c0.1,0,0.2,0,0.2,0.1c2.9,0.6,2.6,0.1,2.3,3c-0.4,3.9-0.7,7.9-1,11.8c-0.1,1.1-0.5,1.5-1.5,1.1c-1-0.4-2.3,0.2-3-1
	c-0.1-0.2-0.5,0.1-0.8,0.2c-2.4,0.8-4.8,0.3-6.1-1.6c-1.2-1.7-1.1-3.8-0.7-5.8c0.1-0.4,0.3-0.8,0.5-1.2
	C149.5,58.2,151.1,57.3,153.5,57.4z"/>
<path class="st1" d="M141,63.8c-1.1,0-2.2,0-3.4,0c-0.9,0-0.9,0.4-0.6,1.1c0.5,1,1.9,1.4,2.6,0.6c1.3-1.4,2.6-0.8,4-0.5
	c0.9,0.2,1,0.6,0.5,1.3c-1.5,2-3.6,2.7-6,2.4c-1-0.1-2-0.4-2.9-0.7c-1.7-0.6-2.7-2.2-2.7-4c0-0.4,0-0.7,0-1.1
	c-0.6-4.5,3.7-6.6,7-6.3c3.8,0.4,5.7,2.4,5.8,6c0,0.8-0.2,1.1-1,1.1C143.2,63.8,142.1,63.8,141,63.8C141,63.8,141,63.8,141,63.8z"/>
<path class="st1" d="M189.4,80.8c-3,0.2-5.2-1.2-6.8-3.7c-1-1.5-0.7-4.8,0.7-6.3c1.1-1.3,2.6-2.2,4.3-2.4c2.9-0.4,4.8,1.5,6.2,3.5
	c1.4,2,0.8,4.2-0.2,6.3c-0.3,0.6-0.7,0.3-1.1,0.1c-1.7-1-3.5-2.1-5.2-3.1c-0.3-0.2-0.7-0.6-1-0.3c-0.4,0.4-0.3,0.9-0.1,1.3
	c0.5,1.2,1.4,1.6,2.7,1.3c0.4-0.1,0.6,0,0.9,0.2c0.5,0.3,1.1,0.6,1.6,1c0.4,0.3,1.1,0.4,1.1,0.9c0,0.6-0.7,0.8-1.2,1.1
	C190.7,80.9,190,80.8,189.4,80.8z"/>
<path class="st3" d="M55.7,174.5c-1.8,0-3.6,0-5.3,0c-1.1,0-2.2,0.1-3.2,0.2c-0.9,0.1-1.4-0.2-1.7-1.1c-0.3-0.9,0.1-1.2,0.7-1.6
	c2.9-2.1,5.8-4.1,8.7-6.2c0.4-0.3,0.8-1.1,1.3-0.2c0.4,0.7,0.9,1.5-0.2,2.2c-2,1.3-3.9,2.6-5.9,3.9c-0.3,0.2-0.7,0.3-0.9,0.8
	c1.4,0,2.9,0,4.3,0c1.4,0,2.8,0,4.2-0.2c1-0.1,1.1,0.6,1.3,1.2c0.2,0.6,0.4,1.2-0.3,1.7c-2,1.4-3.9,2.9-5.9,4.3
	c-0.3,0.2-0.7,0.3-0.9,0.9c2.7-0.2,5.4-0.4,8-0.6c1.1-0.1,1.5,0.3,1.8,1.3c0.1,0.5,0.1,0.8-0.6,0.9c-3.9,0.2-7.8,0.3-11.7,0.5
	c-0.8,0-1-0.5-1.2-1.1c-0.2-0.6-0.1-1,0.4-1.3c2.1-1.5,4.1-3,6.2-4.5C55.1,175.2,55.6,175,55.7,174.5z"/>
<path class="st1" d="M105.6,66.9c-0.3-1.8,0.2-3.5,2.2-4.4c2.5-1.2,5-2,7.7-0.6c0.2,0.1,0.4,0.3,0.5,0.5c1.1,1.2,1,1.5-0.4,2
	c-1.1,0.5-2.2,1.1-3.5,0.3c-0.4-0.3-0.9-0.1-1.4,0.2c-1.1,0.6-1.4,1.6-1,2.9c0.4,1.4,1.5,2.4,2.6,2.3c1.1-0.1,1.6-0.9,1.6-1.9
	c0-0.7,0.4-1,1-1.1c0.8-0.1,1.6-0.2,2.4-0.4c0.8-0.2,1,0.2,1,0.9c0,2.1-1,3.6-2.8,4.5c-1.2,0.7-2.6,1.1-4,1.3c-3.2,0.6-6-1.8-6-5.1
	C105.6,68,105.6,67.6,105.6,66.9z"/>
<path class="st1" d="M97.9,67.3c1.1-0.1,2.3,0.1,3,1.3c0.1,0.2,0.3,0.4,0.3,0.6c0,0.7-2.6,2.3-3.1,2c-1-0.6-2-0.9-2.9,0.1
	c-0.8,0.8-0.7,1.8-0.3,2.8c0.5,1.3,1.5,2,2.6,1.9c1.3-0.1,2.1-0.7,1.9-2.1c-0.1-0.9,0.2-1.2,1-1.4c0.7-0.2,1.4-0.4,2-0.7
	c0.9-0.4,1.2,0,1.1,0.8c-0.3,2.9-1.5,5.6-4.7,6.4c-1.5,0.4-2.9,1-4.5,0.3c-2.9-1.2-5.8-6.2-2.1-9.9C93.8,67.9,95.1,67.4,97.9,67.3z"
	/>
<path class="st1" d="M176.3,75.2c-2.6,0-3.9-1.7-3.2-4.2c0.4-1.6,1-3.1,1.6-4.7c0.2-0.5,0.5-1.1-0.5-1.2c-0.2,0-0.3-0.2-0.4-0.4
	c-0.2-0.9,0.7-2.3,1.6-2.5c0.2-0.1,0.5-0.2,0.6-0.4c1.2-2,3.4-1.1,5.1-1.6c0.4-0.1,0.3,0.3,0.2,0.6c-0.2,0.6-0.5,1.3-0.8,1.9
	c-0.4,0.7-0.2,1.1,0.6,1.3c1,0.2,1.1,0.7,0.6,1.5c-0.2,0.3-0.4,0.6-0.5,1c-0.3,0.7-0.7,0.9-1.3,0.5c-1-0.5-1.4-0.1-1.7,0.9
	c-0.2,0.9-0.6,1.8-0.9,2.7c-0.2,0.7-0.4,1.5,0.8,1.6c0.3,0,0.4,0.2,0.4,0.5C178.6,74.2,177.8,75.2,176.3,75.2z"/>
<path class="st3" d="M235.6,171.3c-1.5-1.2-3-2.3-4.4-3.5c-0.4-0.3-0.7-0.6-0.6-1.2c0.3-1.4,0.5-1.5,1.6-0.6
	c2.7,2.1,5.4,4.2,8.1,6.4c1.4,1.1,1.7,2.4,1.1,3.7c-0.2,0.5-0.5,0.8-1.1,0.7c-0.7-0.1-1.2-0.2-0.8-1.2c0.5-1.2-0.5-2.4-1.8-2.3
	c-2.4,0.2-4.8,0.5-7.1,0.8c-0.2,0-0.3,0.1-0.4,0.2c0.4,1-0.9,1.7-0.5,2.8c0.3,0.8,1,1.1,1.7,1.4c1.3,0.6,2.7,1.1,4,1.6
	c0.7,0.3,0.7,0.6,0.4,1.2c-0.3,0.5-0.4,1.2-1.3,0.8c-2.4-1-4.8-1.9-7.1-2.8c-0.8-0.3-0.9-1.1-0.1-1.8c0.4-0.4,0.4-0.7,0.4-1.2
	c0-1.4,1.1-2.5,1.5-3.9c0.1-0.3,0.6-0.3,1-0.3c1.3-0.1,2.5-0.2,3.8-0.4C234.4,171.7,235,171.8,235.6,171.3z"/>
<path class="st3" d="M190.7,228.8c-1.6-0.1-2.7-0.5-3.6-1.6c-0.2-0.3-0.6-0.7-0.1-1c0.5-0.3,0.9-1.1,1.6-0.5c2,1.4,4.2,1,5.8-0.8
	c0.5-0.6,0.8-1.3,0.4-2c-0.4-0.8-1.1-0.8-1.9-0.6c-1.6,0.4-3.1,0.8-4.7,1.1c-1.4,0.3-2.7,0-3.5-1.3c-0.8-1.4-0.6-2.7,0.3-3.9
	c1.4-1.8,3.4-2.8,5.7-2.7c0.7,0,1.4,0.3,2,0.7c0.4,0.4,1.1,0.7,0.7,1.4c-0.4,0.7-1.4,0.9-2.1,0.4c-1.4-1-4.7,0.2-5,2
	c-0.2,0.9,0.4,1.6,1.4,1.4c0.9-0.1,1.7-0.4,2.6-0.6c0.9-0.2,1.8-0.5,2.7-0.6c1.3-0.2,2.5,0.1,3.3,1.2c0.9,1.2,1,2.5,0.3,3.7
	C195.4,227.5,193,228.4,190.7,228.8z"/>
<path class="st3" d="M86.7,229.1c-1.9-0.3-3.6-1.1-4.7-3c-0.2-0.3-0.3-0.8-0.3-1.1c0-0.6,0-1.5,0.7-1.6c0.6,0,1.3,0.6,1.4,1.4
	c0.2,1.3,1,2.1,2.3,2.4c0.5,0.1,0.9,0,1.2-0.3c0.3-0.2,0.8-0.5,0.7-0.9c0-0.5-0.6-0.3-0.9-0.4c-1.9-0.5-3.2-2-3.3-3.9
	c-0.1-2.1,1.4-4.5,3.4-5.2c1.7-0.6,3.8,0,4.9,1.5c0.3,0.4,0.6,0.7,1.2,0.7c1.2,0.1,1.5,0.9,0.8,1.9c-1.3,2.1-2.6,4.3-4,6.4
	C89.1,228.5,88.1,229.1,86.7,229.1z"/>
<path class="st3" d="M199.5,214.4c0-1.8,1.2-3.4,3.1-4c0.5-0.1,0.8-0.3,1-0.8c0.6-1.2,1.3-1.2,2.1-0.2c1.5,1.9,3.1,3.9,4.6,5.8
	c1,1.3,1.6,2.8,0.7,4.3c-1,1.7-2.5,2.9-4.6,3c-0.3,0-0.7,0-0.9-0.1c-0.5-0.2-1.3-0.5-1-1.2c0.2-0.5,0.9-1,1.7-0.8
	c1.2,0.3,2.3-0.2,2.9-1.2c0.4-0.6,0.4-1.3,0-1.9c-0.3-0.5-0.4-0.7-0.9-0.1c-1.3,2-3.1,2.7-5.1,2.1
	C201.1,218.8,199.5,216.6,199.5,214.4z"/>
<path class="st3" d="M134.2,240.7c-1.1,0.2-1.6-0.5-1.8-1.6c-0.6-2.5-0.7-2.5-3.3-2.8c-3.2-0.4-2.3-0.6-3.9,2
	c-0.2,0.4-0.3,1-0.9,1.1c-0.6,0.1-1.3,0.2-1.7-0.2c-0.5-0.5,0.2-0.9,0.4-1.3c1.8-3.2,3.7-6.4,5.5-9.7c0.3-0.6,0.7-1,1.5-0.9
	c0.8,0.2,1.4,0.3,1.6,1.2c1.1,3.8,2.3,7.5,3.4,11.2C135.1,240.3,135.4,240.9,134.2,240.7z"/>
<path class="st1" d="M124.1,58.2c0.9,0.8,1.4-0.1,2.1-0.5c0.8-0.5,1.5-0.4,2.3,0c0.8,0.5,0.2,1.1,0.2,1.7c-0.1,1-0.5,1.7-1.7,1.6
	c-0.8-0.1-1.3,0.6-1.4,1.4c-0.2,1,0,2,0.4,2.9c0.4,1,0.5,2.2,0.8,3.3c0.1,0.6-0.1,0.9-0.7,1c0,0-0.1,0-0.1,0
	c-3.4,0.8-3.3,0.8-3.9-2.6c-0.4-2.4-0.9-4.8-1.4-7.2c-0.2-0.8-0.1-1.2,0.8-1.3C122.3,58.6,123.2,58.4,124.1,58.2z"/>
<path class="st1" d="M171.1,230.2c0-2.7,1.7-4.4,4.3-4.4c0.9,0,1.1-0.2,0.8-1c-0.2-0.4-0.3-0.9-0.5-1.4c-0.4-1.2-0.3-1.4,0.9-1.7
	c0.6-0.2,0.8,0,1,0.5c1.2,3.5,2.4,7,3.6,10.5c0.3,0.8-0.5,1.4-1.5,1.3c-0.3,0-0.4-0.2-0.7,0c-3.4,2.5-7,1.1-7.7-3
	C171.1,230.7,171.1,230.3,171.1,230.2z"/>
<path class="st3" d="M57.9,184c1.1,0,2,0.4,2.6,1.2c0.4,0.4,0.8,0.9,1.1,1.4c1.6,2.7,1.2,4.1-1.5,5.7c-1.4,0.8-3.1,1.4-4.1,2.8
	c-0.3,0.3-0.5,0.3-0.6-0.1c-0.2-0.6-0.9-1-0.5-1.8c0.3-0.6-0.3-0.7-0.6-0.9c-1.3-1-2.3-2.2-2.3-4c0-1,0.4-1.9,1.3-2.4
	c1-0.5,1.9-0.4,2.8,0.2c1.2,0.8,1.8,2,2.7,3c0.3,0.4,0.5,1.1,1.2,0.7c0.7-0.4,0.8-1,0.5-1.7c-0.5-1.1-0.9-2.1-2.4-2.1
	c-0.9,0-1-0.9-1.1-1.4C56.7,183.9,57.5,184.1,57.9,184z"/>
<path class="st3" d="M217.2,202.7c0-0.8,0.3-1.5,0.6-2.2c0.4-0.8,0.9-1.6,1.4-2.4c0.2-0.3,0.5-0.7,0.1-1.1c-0.4-0.3-0.9-0.4-1.3-0.1
	c-1.2,0.6-1.8,2-1.4,3.4c0.3,0.9-0.5,1.3-1,1.6c-0.6,0.4-0.7-0.4-0.9-0.8c-0.4-0.8-0.4-1.6-0.1-2.4c0.2-0.7,0.6-1.4,1.1-2
	c1.9-2.6,3.3-2.7,5.9-0.8c1.3,1,2.4,2.2,4,2.7c0.2,0.1,0.5,0.2,0.3,0.5c-0.4,0.5-0.6,1.2-1.3,1.3c-0.6,0-0.7,0.4-0.8,0.8
	c-0.3,1.4-1,2.5-2.1,3.4c-0.9,0.7-1.9,0.9-2.9,0.3C217.7,204.6,217.2,203.8,217.2,202.7z"/>
<path class="st3" d="M70.9,201c1.2,0.5,2.2,1.1,2.8,2.2c0.8,1.3,0.8,2.6-0.3,3.7c-1.4,1.4-2.9,2.7-4.3,4.1c-0.6,0.6-0.9,0.2-1.3-0.2
	c-0.4-0.4-0.9-0.8-0.2-1.4c1.2-1.1,2.4-2.2,3.6-3.3c1-0.9,1.1-1.8,0.4-2.6c-0.8-1-2-1.2-3-0.5c-1.3,1-2.4,2.1-3.6,3.2
	c-0.6,0.6-1,0.6-1.6-0.1c-0.6-0.7-0.4-1,0.1-1.5c2.7-2.4,5.3-4.8,7.9-7.3c0.7-0.6,1-0.3,1.4,0.2c0.5,0.5,0.7,0.9,0,1.4
	C72.3,199.5,71.5,200.1,70.9,201z"/>
<path class="st1" d="M170.6,61.6c-0.7,2.8-1.5,5.6-2.2,8.3c-0.5,1.7-0.5,1.7-2.2,1.4c-2.6-0.4-2.6-0.4-1.9-3
	c0.6-2.6,1.3-5.1,1.9-7.7c0.2-0.9,0.6-1.2,1.5-0.8c0.8,0.3,1.6,0.5,2.4,0.8C170.5,60.8,170.8,61.1,170.6,61.6z"/>
<path class="st3" d="M233.1,186.3c0,2.7-2.3,5.2-4.7,5.1c-2.7-0.1-5.2-2.3-5.2-4.8c0-2.7,2.2-5.2,4.7-5.2
	C230.5,181.5,233.1,183.8,233.1,186.3z"/>
<path class="st3" d="M97.9,228.7c0-2.9,2.1-5.3,4.7-5.2c2.8,0,5.2,2.2,5.2,4.6c0,2.9-2.2,5.3-4.8,5.3
	C100.1,233.4,97.9,231.3,97.9,228.7z"/>
<path class="st3" d="M164.5,234.9c0,2.8-1.9,4.6-4.9,4.7c-2.8,0.1-4.7-2.1-4.7-5.2c0-2.7,2-4.6,5-4.6
	C162.7,229.7,164.4,231.7,164.5,234.9z"/>
<path class="st3" d="M57.7,197.4c0-0.5,0.1-1,0.4-1.4c0.3-0.4,0.4-1.3,1.1-0.8c0.5,0.3,1.4,0.7,0.8,1.8c-0.6,1,0.2,2.8,1.3,3.3
	c0.8,0.3,1.4-0.1,1.2-1c-0.1-0.7-0.5-1.3-0.7-1.9c-0.3-0.7-0.6-1.4-0.7-2.2c-0.2-1.4,0.9-2.6,2.2-2.7c2.5-0.1,5.1,3.6,4.1,5.9
	c-0.2,0.4-0.4,1.1-0.9,0.8c-0.5-0.3-1.4-0.7-1-1.6c0.6-1.3-0.3-2-1-2.8c-0.2-0.3-0.6-0.4-1-0.1c-0.3,0.3-0.3,0.6-0.2,1
	c0.4,1,0.8,2,1.1,3c0.5,1.6,0.3,2.6-0.7,3.3c-1.1,0.8-2.4,0.7-3.7-0.2C58.7,200.7,57.6,198.8,57.7,197.4z"/>
<path class="st3" d="M209.7,207c0,0.7,0.3,1.2,0.8,1.7c1,1.1,2,2.1,3.1,3.1c0.6,0.6,0.4,1-0.1,1.4c-0.5,0.5-0.8,0.7-1.4,0.1
	c-1.7-1.7-3.4-3.4-5.1-5.1c-0.8-0.8-0.7-1.8,0.5-2.1c0.5-0.1,0.7-0.3,0.8-0.8c0.3-0.9,0.9-1.6,1.7-2.1c1.4-1,2.6-1,3.9,0.1
	c1.5,1.3,2.8,2.7,4.2,4.1c0.7,0.6,0.1,0.9-0.2,1.4c-0.4,0.4-0.8,0.8-1.4,0.2c-1.1-1.2-2.3-2.3-3.5-3.5c-0.6-0.5-1.2-1-2-0.6
	C210.3,205.3,209.8,206,209.7,207z"/>
<path class="st3" d="M85.1,214.5c0,0.8-0.4,1.6-0.8,2.2c-1.1,1.4-2.2,2.7-3.2,4.2c-0.6,0.9-1,0.3-1.6,0c-0.6-0.4-0.6-0.8-0.1-1.3
	c1-1.2,1.9-2.4,2.9-3.7c0.9-1.2,0.9-2,0-2.7c-1-0.8-2.2-0.8-3.1,0.2c-1,1.2-2,2.4-2.9,3.7c-0.5,0.7-0.9,0.7-1.5,0.2
	c-0.7-0.5-0.7-0.9-0.2-1.5c1.5-1.9,3-3.8,4.5-5.6c0.2-0.3,0.4-0.8,0.9-0.6c0.5,0.2,1.1,0.6,1.1,1c-0.1,0.7,0.3,0.6,0.7,0.7
	C83.6,211.3,85.1,213,85.1,214.5z"/>
<path class="st3" d="M117.4,230.8c-0.3,2-1.1,4.1-1.8,6.3c-0.2,0.8-0.8,0.3-1.3,0.2c-0.6-0.1-0.9-0.5-0.7-1.1
	c0.4-1.4,0.9-2.9,1.3-4.4c0.5-1.6,0.2-2.3-1-2.7c-1.4-0.4-2.4,0.1-2.9,1.5c-0.5,1.4-0.9,2.9-1.3,4.4c-0.2,0.7-0.6,0.8-1.2,0.6
	c-0.6-0.2-1.1-0.4-0.8-1.2c0.7-2.3,1.4-4.6,2.1-6.9c0.3-1.1,1.2-1.4,2-0.6c0.4,0.4,0.7,0.4,1.2,0.4
	C115.3,227,117.4,228.5,117.4,230.8z"/>
<path class="st3" d="M150.1,240.7c-2.1,0-3.5-0.9-4.2-2.8c-0.8-2.2-0.4-4.6,1-5.8c1.3-1.2,3.9-1.6,5.5-0.7c0.5,0.2,0.9,0.5,1.2,1
	c0.2,0.5,1,1,0.2,1.5c-0.6,0.3-1.4,0.7-1.9-0.3c-0.4-0.8-1.2-1-2.1-0.9c-0.9,0.1-1.6,0.6-1.9,1.4c-0.4,1.2-0.3,2.5,0.3,3.6
	c0.4,0.9,1.2,1.2,2.2,1.2c1-0.1,1.7-0.5,2-1.5c0.1-0.4,0.1-0.9,0.7-0.9c0.5,0,1-0.2,1.4,0.2c0.3,0.4,0,0.9-0.1,1.2
	C153.7,239.8,152.1,240.7,150.1,240.7z"/>
<path class="st3" d="M136.1,236.1c-0.1-3.7,2.8-5.5,6.4-4.5c0.9,0.2,1.6,0.8,2,1.6c0.2,0.5,0.7,1.1,0,1.4c-0.6,0.2-1.4,0.6-1.8-0.4
	c-0.4-0.9-1.2-1.2-2.2-1.1c-1,0.1-1.7,0.6-2,1.6c-0.3,0.9-0.3,1.9-0.1,2.8c0.2,1,0.9,1.7,2,1.7c1.1,0.1,2-0.2,2.3-1.4
	c0.4-1.2,1.3-0.6,1.9-0.5c0.7,0.2,0.2,0.8,0.1,1.2c-0.7,1.7-2.5,2.7-4.6,2.4c-2.2-0.3-3.6-1.6-3.9-3.6
	C136.1,236.9,136.1,236.5,136.1,236.1z"/>
<path class="st3" d="M96,220.1c0.6,0.3,0.7-0.2,0.9-0.5c0.2-0.3,0.3-0.8,0.7-1c0.6-0.3,1.4-0.4,1.9,0c0.4,0.4-0.2,0.9-0.4,1.4
	c-0.3,0.7-1,1.4,0.3,2c0.6,0.2,0.2,0.7,0,1c-0.2,0.4-0.4,0.7-0.8,0.4c-0.9-0.6-1.2,0-1.6,0.7c-0.5,1-1,2.1-1.6,3.1
	c-0.3,0.6-0.4,1.1,0.4,1.5c0.7,0.3,0.4,0.9,0.2,1.3c-0.2,0.6-0.6,0.5-1.1,0.3c-1.9-0.6-2.5-1.8-1.6-3.6c0.6-1.3,1.3-2.6,1.9-3.9
	c0.2-0.4,0.5-0.9-0.1-1.2c-0.5-0.3-0.2-0.7-0.1-1.1C95.3,220,95.5,219.8,96,220.1z"/>
<path class="st3" d="M227,196.3c-0.8,0-1.3-0.2-1.7-0.5c-1-0.6-2-1.3-3-1.9c-0.6-0.4-1.2-1.3-2.1-0.2c-0.3,0.3-1.4-0.5-1.2-0.9
	c0.3-0.7,0-1-0.5-1.3c-1.2-0.5-0.7-1.5-0.7-2.4c0-0.4,0.3-0.4,0.6-0.2c0.4,0.3,0.8,0.5,1.2,0.8c0.6,0.5,1.1,0.6,1.5-0.2
	c0.3-0.5,0.6-0.4,1-0.1c0.4,0.3,0.8,0.5,0.4,1c-0.6,0.7-0.3,1.1,0.4,1.5c1.1,0.6,2.1,1.3,3.1,2c0.5,0.3,1,0.5,1.4-0.2
	c0.4-0.8,0.9-0.3,1.4-0.1c0.7,0.3,0.4,0.8,0.2,1.2C228.5,195.4,227.9,196.2,227,196.3z"/>
<path class="st3" d="M170.2,228.7c0,0.6-0.1,1-0.9,1c-1.4,0-1.9,0.8-1.6,2.3c0.3,1.5,0.7,3,1.1,4.4c0.2,0.8,0,1.1-0.8,1.3
	c-0.8,0.2-1.1-0.1-1.3-0.8c-0.5-2.3-1.2-4.6-1.7-6.8c-0.3-1.1,0.4-1.8,1.4-1.5c0.5,0.2,0.6,0.1,0.9-0.2c0.6-0.6,1.3-0.7,2.1-0.7
	C170.1,227.7,170.4,228,170.2,228.7z"/>
<path class="st3" d="M78.2,207.7c-0.2,0.3-0.4,0.6-0.6,0.8c-1.6,1.8-3.3,3.5-4.9,5.4c-0.6,0.7-1,0.5-1.5,0c-0.6-0.5-0.6-0.9-0.1-1.4
	c1.7-1.8,3.4-3.7,5.1-5.5c0.2-0.2,0.4-0.7,0.9-0.4C77.4,206.8,77.9,207.2,78.2,207.7z"/>
<path class="st3" d="M201.8,222.3c-0.2,0.6-0.8,0.8-1.2,1.1c-0.4,0.3-0.6,0-0.8-0.3c-1.5-2.2-3-4.4-4.5-6.7
	c-0.5-0.8,0.3-0.9,0.7-1.2c0.4-0.4,0.8-0.5,1.2,0.1c1.5,2.2,2.9,4.4,4.4,6.6C201.7,222,201.8,222.1,201.8,222.3z"/>
<path class="st3" d="M170.1,59.4c-0.1,0-0.2,0-0.2,0c-2.6-0.3-3.1-1-2.1-3.5c0.2-0.4,0.4-0.6,0.8-0.4c0.8,0.3,1.6,0.6,2.3,0.9
	c1,0.5,0.3,1.3,0.2,1.9C171,58.9,171,59.6,170.1,59.4z"/>
<path class="st4" d="M80.5,205.2c-0.4,0.6-0.8,1.4-1.4,1.3c-0.6,0-1.4-0.6-1.3-1.3c0-0.6,0.7-1.3,1.3-1.3
	C79.7,204,80.1,204.7,80.5,205.2z"/>
<path class="st4" d="M194.5,214.8c-0.7-0.3-1.1-0.9-1.2-1.5c0-0.7,0.8-1.1,1.3-1.1c0.7,0,1.1,0.9,1.2,1.4
	C195.9,214.2,195,214.3,194.5,214.8z"/>
<path class="st5" d="M137.5,225.3c2.8,0,5.6,0,8.5,0C143.2,225.7,140.3,225.6,137.5,225.3z"/>
<path class="st6" d="M145.7,72.4c-2.7,0-5.3,0-8,0C140.4,72,143.1,72,145.7,72.4z"/>
<path class="st7" d="M60.2,146.1c0,1.8,0,3.7,0,5.5C59.9,149.8,59.9,147.9,60.2,146.1z"/>
<path class="st0" d="M139.5,222.4c-17.9-0.5-33.9-6.3-47.9-17.5c-10.2-8.2-18.5-17.9-23.5-30.2c-2.5-6.3-4.1-12.8-4.8-19.5
	c-0.4-3.8-0.4-7.7-0.1-11.5c1.1-14.1,6-26.8,15-37.9c3.4-4.2,7.3-8.1,11.4-11.6c4.9-4.2,10.3-7.8,16.1-10.7c7.9-4,16.3-6.5,25.1-7.6
	c4.8-0.6,9.6-0.8,14.3-0.6c10.6,0.4,20.7,2.8,30.4,7.3c6.9,3.2,13.2,7.3,18.9,12.3c8.4,7.2,15.3,15.6,19.9,25.7
	c2.7,6,4.5,12.3,5.4,18.8c0.5,3.9,0.8,7.8,0.6,11.7c-0.6,14.6-5,27.9-14.1,39.3c-13.6,17.1-31,28-52.9,31.2
	c-3.2,0.5-6.3,0.7-9.5,0.8C142.3,222.6,140.9,222.6,139.5,222.4z"/>
<path class="st8" d="M139.5,222.4c1.4,0,2.9,0,4.3,0C142.3,222.7,140.9,222.8,139.5,222.4z"/>
<path class="st0" d="M78.7,78.8c1.4,0.9,2.4,1.6,3.5,2.3c0.4,0.3,0.4,0.5,0,0.8c-0.5,0.4-1.1,0.8-1.6,1.2c-0.3,0.2-0.6,0.2-0.7-0.2
	C79.6,81.7,79.2,80.4,78.7,78.8z"/>
<path class="st0" d="M201.4,85.7c-1.4,0-2.2-1.5-1.6-2.5c0.5-0.8,1.1-1.5,1.8-2.2c0.6-0.6,1.5-0.6,2.2-0.1c0.8,0.7,1,1.8,0.3,2.5
	C203.3,84.3,202.6,85.5,201.4,85.7z"/>
<path class="st0" d="M156.5,63c0.3,1.5-0.8,2.3-1.7,3.2c-0.4,0.4-1.8-0.2-2.2-0.9c-0.7-1.4,0.1-4,1.6-4.7c0.7-0.3,2.1,0.7,2.3,1.5
	C156.6,62.4,156.5,62.7,156.5,63z"/>
<path class="st0" d="M138.9,61.6c-0.2,0-0.4,0-0.6,0c-0.5-0.1-1.3,0.3-1.4-0.5c-0.1-0.8,0.6-1.2,1.3-1.5c0.9-0.3,2,0.4,2.4,1.4
	c0.1,0.3,0.1,0.6-0.3,0.6C139.8,61.6,139.3,61.6,138.9,61.6C138.9,61.6,138.9,61.6,138.9,61.6z"/>
<path class="st0" d="M191.3,73.8c0,0.4-0.2,0.5-0.6,0.2c-0.9-0.4-1.8-0.9-2.7-1.3c-0.6-0.3-0.4-0.7,0-0.9c0.7-0.3,1.5-0.3,2.2,0
	C190.9,72.2,191.2,72.9,191.3,73.8z"/>
<path class="st0" d="M88.9,218.1c1.2,0,2.3,1.1,2.3,2.3c0,1.7-1.6,3.6-3,3.6c-1.3,0-2.3-1-2.3-2.3C85.9,220.1,87.5,218.2,88.9,218.1
	z"/>
<path class="st0" d="M204.7,217.7c-1.5-0.1-3.2-2-3.1-3.6c0.1-1.2,1.2-2.3,2.4-2.2c1.4,0.1,3.2,2.1,3.1,3.6
	C207,216.8,205.9,217.7,204.7,217.7z"/>
<path class="st0" d="M129.8,229.9c0.4,1.5,0.8,2.8,1.1,4.1c0.1,0.2,0.1,0.5-0.2,0.6c-1,0.1-2-0.1-2.9-0.3c-0.3-0.1-0.1-0.4,0-0.6
	C128.4,232.5,129,231.3,129.8,229.9z"/>
<path class="st0" d="M173.3,229.5c0-0.8,0.4-1.6,1.4-1.9c1.1-0.4,1.9,0,2.5,0.8c0.6,0.8,1,1.7,1.1,2.7c0.1,1.1-0.4,1.9-1.4,2.3
	c-1,0.4-1.8,0.2-2.5-0.6C173.6,232,173.3,231,173.3,229.5z"/>
<path class="st0" d="M56.4,191.4c-1.2,0-2.5-1.3-2.6-2.5c0-0.4,0.1-0.8,0.5-1c0.4-0.2,0.9-0.1,1.2,0.2c0.7,0.8,1.4,1.6,2.1,2.5
	C57.9,191,57.3,191.5,56.4,191.4z"/>
<path class="st0" d="M222.3,200.5c-0.1,0.9-0.5,1.8-1.3,2.4c-0.4,0.3-0.9,0.4-1.3,0.1c-0.5-0.3-0.5-0.8-0.3-1.3
	c0.4-0.9,0.9-1.7,1.3-2.6c0.3-0.7,0.6-0.6,1-0.1C222,199.5,222.2,199.9,222.3,200.5z"/>
<path class="st0" d="M227.5,183.6c1.8,0,3.7,1.7,3.6,3.2c0,1.4-1.2,2.5-2.6,2.5c-1.8,0-3.6-1.6-3.7-3
	C224.9,184.8,226.1,183.6,227.5,183.6z"/>
<path class="st0" d="M100,229.1c0-1.9,1.4-3.7,2.8-3.7c1.4,0,2.6,1.1,2.7,2.5c0,1.8-1.4,3.7-2.9,3.7
	C101.2,231.6,100.1,230.5,100,229.1z"/>
<path class="st0" d="M162.3,235c0,1.7-1,2.8-2.6,2.8c-1.6,0-2.7-1.4-2.7-3.5c0-1.6,1.1-2.8,2.6-2.8
	C161.2,231.5,162.3,232.9,162.3,235z"/>
<path class="st1" d="M134.3,147c0-8.8,0-17.6,0-26.4c0-1.6,0-1.6,1.6-1.6c10.8,0,21.5,0,32.3,0c1.6,0,1.6,0,1.6,1.6
	c0,3.3,0,6.6,0,10c0,1.1-0.3,1.4-1.4,1.4c-6.8,0-13.6,0-20.4,0c-1.6,0-1.6,0-1.6,1.6c0,1.6,0.1,3.3,0,4.9c0,1,0.3,1.2,1.3,1.2
	c6.4,0,12.7,0,19.1,0c1.7,0,1.7,0,1.7,1.7c0,3.2,0,6.5,0,9.7c0,1.1-0.3,1.5-1.4,1.4c-6.3,0-12.6,0-19,0c-1.6,0-1.6,0-1.6,1.6
	c0,2.2,0.1,4.5,0,6.7c0,1.2,0.3,1.5,1.5,1.5c6.9,0,13.8,0,20.8,0c1.8,0,1.8,0,1.8,1.9c0,3.2,0,6.4,0,9.6c0,1.1-0.3,1.4-1.4,1.4
	c-11.2,0-22.3,0-33.5,0c-1.1,0-1.3-0.4-1.3-1.4C134.3,164.8,134.3,155.9,134.3,147z"/>
<path class="st1" d="M93.9,147c0-8.8,0-17.7,0-26.5c0-1.2,0.3-1.6,1.6-1.6c10.8,0,21.7,0,32.5,0c1.2,0,1.5,0.4,1.5,1.5
	c-0.1,3.4-0.1,6.7,0,10.1c0,1.1-0.3,1.4-1.4,1.4c-6.7,0-13.4,0-20.2,0c-1.9,0-1.9,0-1.9,1.9c0,1.5,0.1,3,0,4.4c0,1,0.3,1.4,1.4,1.4
	c6.4,0,12.7,0,19.1,0c1.2,0,1.6,0.3,1.6,1.5c-0.1,3.3-0.1,6.6,0,10c0,1.1-0.4,1.4-1.4,1.4c-6.2,0-12.4,0-18.6,0c-1.9,0-1.9,0-1.9,2
	c0,2.1,0,4.2,0,6.4c0,1.1,0.4,1.4,1.5,1.4c7,0,14,0,21,0c1.6,0,1.6,0,1.6,1.6c0,3.4,0,6.7,0,10.1c0,0.9-0.3,1.2-1.2,1.2
	c-11.3,0-22.6,0-33.8,0c-1.1,0-1.2-0.4-1.2-1.4C93.9,164.9,93.9,156,93.9,147z"/>
<path class="st1" d="M198.9,153.5c0,6.7,0,13.4,0,20c0,1.1-0.2,1.6-1.5,1.6c-3.3-0.1-6.6,0-9.8,0c-1.5,0-1.5,0-1.5-1.6
	c0-13.3,0-26.5,0-39.8c0-1.8,0-1.8-1.8-1.8c-3.2,0-6.4,0-9.6,0c-1,0-1.3-0.3-1.3-1.3c0.1-3.5,0-7,0-10.4c0-0.9,0.2-1.2,1.2-1.2
	c12,0,24,0,36,0c0.9,0,1.2,0.3,1.2,1.2c0,3.5,0,7,0,10.6c0,0.9-0.3,1.2-1.2,1.2c-3.4,0-6.7,0-10.1,0c-1.2,0-1.5,0.4-1.5,1.5
	C198.9,140.1,198.9,146.8,198.9,153.5z"/>
<path class="st1" d="M87.6,147c0,8.8,0,17.7,0,26.5c0,1.6,0,1.6-1.6,1.6c-3,0-5.9,0-8.9,0c-1.7,0-1.7,0-1.7-1.6c0-7.7,0-15.4,0-23.2
	c0-9.9,0-19.8,0-29.6c0-1.7,0-1.7,1.7-1.7c3,0,6,0,9,0c1.1,0,1.4,0.3,1.4,1.4C87.6,129.3,87.6,138.2,87.6,147z"/>
</svg>
