<svg id="圖層_1" data-name="圖層 1" xmlns="http://www.w3.org/2000/svg" viewBox="0 0 246 83"><defs><style>.cls-1,.cls-2{fill:#fff;}.cls-2{fill-rule:evenodd;}</style></defs><path class="cls-1" d="M3.47,42.24a29.91,29.91,0,1,0,29.9-29.91A29.91,29.91,0,0,0,3.47,42.24Zm-1.08,0a31,31,0,1,1,31,31,31,31,0,0,1-31-31Z"/><path class="cls-1" d="M24.3,25.4a2.32,2.32,0,0,0,.55-1.08,1.87,1.87,0,0,0,0-.47,3.3,3.3,0,0,0-.59.36A7.48,7.48,0,0,0,23,25.49a2.1,2.1,0,0,1,0,1A5.11,5.11,0,0,0,24.3,25.4Zm.55.31a10.42,10.42,0,0,0,1.48-.11,7.82,7.82,0,0,0,2.86-2.48,5.89,5.89,0,0,0-4.34,2.53v.06Zm-.55.78a3.75,3.75,0,0,0-1.35.93,6.14,6.14,0,0,0,1.35,0,2.78,2.78,0,0,0,.55-.14,3.77,3.77,0,0,0,1.64-1,5,5,0,0,0-1.64,0,3.06,3.06,0,0,0-.55.2Zm0,29.31a4.66,4.66,0,0,0,.55,1.44A1.44,1.44,0,0,0,26.2,58a4.79,4.79,0,0,0-1.35-3l-.55-.51a1.3,1.3,0,0,1-.2-.15,7.15,7.15,0,0,0,.2,1.46Zm-1.44,2.9a4,4,0,0,0,1.44.75c.18,0,.35.11.55.16a6.56,6.56,0,0,0,2.92,0,3.93,3.93,0,0,0-2.92-1.46,5.06,5.06,0,0,0-.55,0,6.65,6.65,0,0,0-1.44.15l-.27.07a2,2,0,0,0,.27.31ZM21.77,27.77a3.74,3.74,0,0,0,.78-2.83c-.24.24-.51.53-.78.84A11.48,11.48,0,0,0,21,26.86a2.54,2.54,0,0,1,.09,1.4,1.82,1.82,0,0,0,.68-.49Zm0,1.37a1.64,1.64,0,0,1,.78.09l.31-.17c.69-.38,1.24-.76,1.31-1.13a4.65,4.65,0,0,0-1.31,0,3.74,3.74,0,0,0-1.09.47,2.94,2.94,0,0,0-.88.95c.29-.07.58-.18.88-.25Zm0,24.18a5.18,5.18,0,0,0,1.09,2.55,2.39,2.39,0,0,0,1.17.68c-.42-.6-.48-1.95-1.17-3a2.43,2.43,0,0,0-1.09-1,1.7,1.7,0,0,0,0,.71ZM20.45,28.81a3.51,3.51,0,0,0,0-1.52c-.05-.23-.11-.43-.18-.65a5.41,5.41,0,0,0-.89,3.52c.23-.26.53-.57.82-.48a5.86,5.86,0,0,0,.25-.87Zm0,2.77a5.36,5.36,0,0,0,1.32-1.46l.14-.22a3.94,3.94,0,0,0-1.46.37,1.75,1.75,0,0,0-.25.16,2.11,2.11,0,0,0-1.08,1.37,2.45,2.45,0,0,1,1.22-.15l.11-.07Zm-2.22,3a6.26,6.26,0,0,0,2.22-2.32.52.52,0,0,1,.09-.2,3.15,3.15,0,0,0-2.31,1.39,4.37,4.37,0,0,0-.44,1.42l.44-.29Zm2.22,18.55a6.73,6.73,0,0,0,.9.71,6.27,6.27,0,0,0-.9-2.26A7,7,0,0,0,20,51a.74.74,0,0,1-.46.47,2.28,2.28,0,0,0,.91,1.7Zm0,3.41a5.49,5.49,0,0,0,1.32.82,4.53,4.53,0,0,0,1.09.33,3.88,3.88,0,0,0,1.44,0l.2-.07-.2-.13c-.49-.33-.95-.69-1.44-1a5.12,5.12,0,0,0-1.09-.56,2.53,2.53,0,0,0-1.32-.18,2,2,0,0,0-.65.2c.2.2.42.4.65.6Zm-2.22-3.1a2.65,2.65,0,0,0,2.22,1.66c.33.07.75.13,1.21.18a3.45,3.45,0,0,0-1.21-1.44A5.56,5.56,0,0,0,18.23,53l-.55-.06a1.6,1.6,0,0,1,.55.55Zm-.59-20.28a1.72,1.72,0,0,0,.59-.75c.6-1.31.56-2.3,0-2.9a4.09,4.09,0,0,0-.61,1.35,3.67,3.67,0,0,0,0,2.3Zm0,15.85a5.72,5.72,0,0,1,.59-.17.61.61,0,0,1,.42,0,3.33,3.33,0,0,0-.42-1.22,3.72,3.72,0,0,0-.22-.31,3.62,3.62,0,0,0-.37.77,3.58,3.58,0,0,0-.18,1,.45.45,0,0,0,.18,0Zm-.85-13.34a2.51,2.51,0,0,0,0-2.84c-.06-.13-.15-.26-.24-.42a4.48,4.48,0,0,0-.09,3.65c.11-.13.24-.26.33-.39Zm0,2.16a7.93,7.93,0,0,0,.85-.88,5.51,5.51,0,0,0,.59-.78,7.54,7.54,0,0,0,.49-.93,1.45,1.45,0,0,0-.49.18,3.33,3.33,0,0,0-.59.36,8.41,8.41,0,0,0-.85.71l-.28.26a4.5,4.5,0,0,1,0,1.33,3.15,3.15,0,0,0,.28-.25Zm0,9.5a1.64,1.64,0,0,1,.42.69l.43-1.46a7.72,7.72,0,0,1,.17-1.84.56.56,0,0,0-.17-.22,1.69,1.69,0,0,1-.23-.71A9.83,9.83,0,0,1,16.79,45c-.11.18-.22.38-.37.6.06.51,0,1.09.11,1.62a.49.49,0,0,1,.26.13Zm-1.59-8a1.44,1.44,0,0,0,.55.61c.07-.28.11-.55.16-.81a3.13,3.13,0,0,0,0-.42,7.21,7.21,0,0,0,0-1.47c0-.13,0-.24,0-.37a4.46,4.46,0,0,0-.58-1.55l-.13.31a5.06,5.06,0,0,0,0,3.7ZM16,40.63c.11.09.14.22.18.47,0-.38.33-.53.66-.78A2,2,0,0,0,17.64,39a5.21,5.21,0,0,0,.08-1.21,3.57,3.57,0,0,1-.93.86,2.2,2.2,0,0,1-.28.18A4.85,4.85,0,0,1,16,40.57v.06Zm0,3.79a2.82,2.82,0,0,0,.26.44,8.3,8.3,0,0,0,.62-1.28,6.71,6.71,0,0,0,.47-2.95,2.11,2.11,0,0,0-.47.36A4.23,4.23,0,0,0,16,42.36a2.77,2.77,0,0,0,0,2.06Zm0,5.87a5.46,5.46,0,0,0,.88,1.12,4.71,4.71,0,0,0,.85.67,6.63,6.63,0,0,0,.59.31,4.59,4.59,0,0,0,1.22.33,8.3,8.3,0,0,0-1.12-1.55h.1a.94.94,0,1,0-.93-.93,1.23,1.23,0,0,0,0,.2,3.18,3.18,0,0,0-.73-.46,2.58,2.58,0,0,0-.84-.31,2.51,2.51,0,0,1-.39-.05,3.54,3.54,0,0,0,.35.67ZM15.2,40.21a4.56,4.56,0,0,0-1-1.19,5.67,5.67,0,0,0,1,4,3,3,0,0,0,0-2.81Zm0,5.74a4.9,4.9,0,0,0,.71.57,1.94,1.94,0,0,1,.18.14L16,46.08c0-.09,0-.16,0-.22a7.87,7.87,0,0,0-.71-1.93,3.75,3.75,0,0,0-1.08-1.32c.24,1.12-.2,2.1,1.08,3.34Zm0,2.28.53.9.18,0a2.29,2.29,0,0,1,.88.13,2.64,2.64,0,0,1,.38.18,6.38,6.38,0,0,0-.38-.91A4.88,4.88,0,0,0,16,47.28a3.78,3.78,0,0,0-.75-.6,4.51,4.51,0,0,0-.89-.42,12.4,12.4,0,0,0,.89,2ZM29.88,22.68c-.09.86-1.62,2.3-3.12,3.12a1.32,1.32,0,0,1,.53.31,9.05,9.05,0,0,1-2.57,1.75c0,.44-.89,1.22-2,1.77A8.64,8.64,0,0,1,21,32c.07.73-.86,1.92-1.77,2.52A4,4,0,0,1,18,37.16a4.89,4.89,0,0,1-.33,2.92,9.13,9.13,0,0,1-.13,2.7,6.26,6.26,0,0,1,.57,3.54c1.17,1.33.58,2.33,1.88,4a8.93,8.93,0,0,1,1.22,1.44,4.77,4.77,0,0,1,2.41,2.16c0-.08.07-.15.18-.48a6.63,6.63,0,0,1,2.81,4.69,7.63,7.63,0,0,1,1.68,1.42,30.78,30.78,0,0,0,10,2.37,4.11,4.11,0,0,1-1.93,1c-3-.93-5.57-1.79-8.47-2.94a6.51,6.51,0,0,1-6.29-1.71c.15-.22.33-.2.55-.24a5,5,0,0,1-3-2.21c0-.18.2-.4.62-.49-1.44-.44-3.17-2.59-2.39-2.95a6.14,6.14,0,0,1-2.66-3.23c.11-.11.2-.13.46-.09-.7-1-1.66-2.3-1.41-3.49.06-.05.2-.05.44,0-.55-.75-1-3.92-.38-3.89a6.81,6.81,0,0,1-.11-3.48,1.23,1.23,0,0,1,.69.31c-.2-1.4.22-3.59.73-4,.27,0,.38.2.53.47a5.53,5.53,0,0,1,.8-3.52,1,1,0,0,1,.42.46c.15-1.26.69-2.85,1.3-3.21a2,2,0,0,1,.51.67,5,5,0,0,1,1.66-3.64,1.24,1.24,0,0,1,.36.78,6.26,6.26,0,0,1,2.08-2.35c.15.11.13.23.22.47a3.21,3.21,0,0,1,2.5-1.42c.14.22.11.4-.09.66a6.26,6.26,0,0,1,4.39-1.19Z"/><path class="cls-1" d="M51.41,42.91a5.08,5.08,0,0,0,1-3.89,4.76,4.76,0,0,0-1,1.19,2.89,2.89,0,0,0,0,2.7Zm-.75-4.22a2.09,2.09,0,0,0,.05.42c0,.26.08.53.15.81a1.38,1.38,0,0,0,.55-.61,5,5,0,0,0,0-3.7l-.13-.31a4.67,4.67,0,0,0-.57,1.55,1.57,1.57,0,0,0-.05.37,9,9,0,0,0,0,1.47ZM49,39a2,2,0,0,0,.84,1.35c.33.25.62.4.66.78.05-.25.07-.38.18-.47a5.25,5.25,0,0,1-.55-1.83,2.29,2.29,0,0,1-.29-.18,3.27,3.27,0,0,1-.84-.75A2.27,2.27,0,0,0,49,39Zm1.68,7.6a7.06,7.06,0,0,0,.75-.62c1.29-1.24.84-2.22,1.09-3.34a3.77,3.77,0,0,0-1.09,1.32,7.88,7.88,0,0,0-.7,1.93,1,1,0,0,0-.05.22l-.13.58.13-.09Zm-.84-10.89c.09.13.22.26.33.39a4.44,4.44,0,0,0-.09-3.65c-.08.16-.17.29-.24.42a2.53,2.53,0,0,0,0,2.84Zm0,7.9c.16.42.38.84.6,1.28a1.38,1.38,0,0,0,.24-.33,2.65,2.65,0,0,0,.05-2A4.35,4.35,0,0,0,49.82,41a2.11,2.11,0,0,0-.47-.36,6.85,6.85,0,0,0,.47,2.95Zm0,5.64a1.9,1.9,0,0,1,.84-.13l.22,0,.53-.9a10.84,10.84,0,0,0,.89-2,4.51,4.51,0,0,0-.89.42,3.93,3.93,0,0,0-.7.55,4.94,4.94,0,0,0-.89,1.26,7.79,7.79,0,0,0-.38.91c.14-.07.25-.13.38-.18ZM49,46.57,49.4,48a1.64,1.64,0,0,1,.42-.69.57.57,0,0,1,.27-.13c.06-.53,0-1.11.11-1.62-.16-.22-.27-.42-.38-.6a11.5,11.5,0,0,1-.62-1.19c0,.18,0,.42-.07.62a.75.75,0,0,0-.33.31,5.68,5.68,0,0,1,.13,1.7l0,.14Zm-.6-14.15a8.57,8.57,0,0,0,.51.89A3.6,3.6,0,0,0,49,30.87a3.77,3.77,0,0,0-.6-1.3c-.55.55-.6,1.54,0,2.85Zm0,3.76A6.47,6.47,0,0,0,49,37a7.05,7.05,0,0,0,.84.88,3.23,3.23,0,0,0,.29.25,4.5,4.5,0,0,1,0-1.33l-.29-.26a9.65,9.65,0,0,0-.84-.71,3.81,3.81,0,0,0-.6-.36,1.37,1.37,0,0,0-.49-.18,9.2,9.2,0,0,0,.49.93Zm0,12.67c.2,0,.4.11.6.17a.41.41,0,0,0,.18,0,4.58,4.58,0,0,0-.18-1,3,3,0,0,0-.4-.77c-.07.11-.13.22-.2.31A3.52,3.52,0,0,0,48,48.87a.61.61,0,0,1,.42,0ZM49.82,50a3.59,3.59,0,0,0-.66.41.95.95,0,1,0-1.89,0,.94.94,0,0,0,.91.93,8.84,8.84,0,0,0-1,1.44,4.49,4.49,0,0,0,1.22-.33c.2-.09.4-.2.6-.31a4.66,4.66,0,0,0,.84-.67,6,6,0,0,0,.84-1,5.6,5.6,0,0,0,.4-.75,3.27,3.27,0,0,1-.35.05,2.54,2.54,0,0,0-.89.31ZM46.17,28.81a4.78,4.78,0,0,0,.24.87c.29-.09.6.22.82.48a5.29,5.29,0,0,0-.89-3.52c-.06.22-.13.42-.17.65a3.51,3.51,0,0,0,0,1.52Zm0,3.46a6.23,6.23,0,0,0,2.21,2.32c.16.09.31.2.44.29a3.93,3.93,0,0,0-.44-1.42,3,3,0,0,0-2.21-1.37c-.05,0,0,.11,0,.18Zm0,20.87a2.31,2.31,0,0,0,.91-1.7.75.75,0,0,1-.47-.47,6.91,6.91,0,0,0-.44.62,6.48,6.48,0,0,0-.91,2.26,6.89,6.89,0,0,0,.91-.71Zm0,2a2.64,2.64,0,0,0,2.21-1.66,1.6,1.6,0,0,1,.55-.55l-.55.06a5.51,5.51,0,0,0-2.21.89A3.55,3.55,0,0,0,45,55.29c.47,0,.89-.11,1.22-.18ZM44.84,27.77a1.86,1.86,0,0,0,.69.49,2.54,2.54,0,0,1,.08-1.4,9.9,9.9,0,0,0-.77-1.08c-.27-.31-.53-.6-.77-.84a3.78,3.78,0,0,0,.77,2.83Zm0,2.35a5.39,5.39,0,0,0,1.33,1.46,3.89,3.89,0,0,1,1.33.22,2.23,2.23,0,0,0-1.09-1.37,2.5,2.5,0,0,0-.24-.16,4,4,0,0,0-1.33-.37v.22ZM43.76,55.87a5.27,5.27,0,0,0,1.08-2.55,4.65,4.65,0,0,0,.07-.75,2.53,2.53,0,0,0-1.15,1c-.69,1-.76,2.36-1.18,3a2.47,2.47,0,0,0,1.18-.68Zm0-26.81.31.17a1.6,1.6,0,0,1,.77-.09c.31.07.6.18.89.25a3,3,0,0,0-.89-.95A3.68,3.68,0,0,0,43.76,28a4.65,4.65,0,0,0-1.31,0c.06.37.62.75,1.31,1.13Zm-1.44,28.6a3.87,3.87,0,0,0,1.44,0,4.46,4.46,0,0,0,1.08-.33,5.75,5.75,0,0,0,1.33-.82c.22-.2.44-.4.64-.6a2,2,0,0,0-.64-.2,2.57,2.57,0,0,0-1.33.18,4.83,4.83,0,0,0-1.08.56c-.49.28-1,.64-1.44,1l-.2.13.2.07Zm-.56.53a3.93,3.93,0,0,0-2.92,1.46,6.56,6.56,0,0,0,2.92,0c.2,0,.38-.12.56-.16a4.33,4.33,0,0,0,1.44-.75l.26-.31-.26-.07a6.72,6.72,0,0,0-1.44-.15,5.24,5.24,0,0,0-.56,0Zm0-33.87a2.44,2.44,0,0,0,.56,1.08,5.06,5.06,0,0,0,1.32,1.09,2.33,2.33,0,0,1,0-1,7,7,0,0,0-1.28-1.28,4.19,4.19,0,0,0-.56-.34.86.86,0,0,0,0,.45ZM40.28,25.6a10.64,10.64,0,0,0,1.48.11,5.76,5.76,0,0,0-4.34-2.59,7.82,7.82,0,0,0,2.86,2.48Zm1.48,1.66a2.87,2.87,0,0,0,.56.14,6.13,6.13,0,0,0,1.35,0,3.94,3.94,0,0,0-1.35-.93,4.16,4.16,0,0,0-.4-.16,5.05,5.05,0,0,0-1.8-.06,3.83,3.83,0,0,0,1.64,1Zm0,30a4.65,4.65,0,0,0,.56-1.44,7.17,7.17,0,0,0,.19-1.46,1.25,1.25,0,0,1-.19.15l-.56.51a4.85,4.85,0,0,0-1.35,3,1.43,1.43,0,0,0,1.35-.71Zm-5-34.56a6.24,6.24,0,0,1,4.38,1.19.49.49,0,0,1-.09-.66,3.19,3.19,0,0,1,2.5,1.42c.09-.24.07-.36.23-.47a6.43,6.43,0,0,1,2.08,2.35,1.1,1.1,0,0,1,.35-.78,4.89,4.89,0,0,1,1.64,3.64,2.57,2.57,0,0,1,.53-.67c.62.36,1.15,1.95,1.3,3.21a1,1,0,0,1,.43-.46A5.47,5.47,0,0,1,50.86,35c.18-.27.29-.42.55-.47.51.42.93,2.61.74,4a1.2,1.2,0,0,1,.68-.31,6.7,6.7,0,0,1-.11,3.48c.6,0,.18,3.14-.38,3.89.25-.09.38-.09.45,0,.24,1.19-.71,2.54-1.42,3.49.27,0,.35,0,.46.09a6.17,6.17,0,0,1-2.65,3.23c.77.36-1,2.51-2.39,2.95.42.09.62.31.62.49a5,5,0,0,1-3,2.21c.22,0,.4,0,.55.24a6.49,6.49,0,0,1-6.28,1.71c-2.9,1.15-5.51,2-8.48,2.94a4,4,0,0,1-1.93-1,30.78,30.78,0,0,0,10-2.37A7.86,7.86,0,0,1,40,58.1a6.66,6.66,0,0,1,2.81-4.69c.11.33.2.4.18.48a4.81,4.81,0,0,1,2.41-2.16,9.47,9.47,0,0,1,1.22-1.44c1.31-1.64.71-2.64,1.88-4a6.54,6.54,0,0,1,.56-3.54,9.87,9.87,0,0,1-.12-2.7,5,5,0,0,1-.33-2.92,4,4,0,0,1-1.17-2.68c-.91-.6-1.84-1.79-1.77-2.52a8.85,8.85,0,0,1-1.75-2.33c-1.13-.55-2-1.33-2-1.77a9.05,9.05,0,0,1-2.57-1.75,1.32,1.32,0,0,1,.53-.31c-1.51-.82-3-2.26-3.12-3.12Z"/><path class="cls-1" d="M1.21,42.24A32.17,32.17,0,1,0,33.37,10.07,32.17,32.17,0,0,0,1.21,42.24Zm-.64,0a32.81,32.81,0,1,1,32.8,32.82A32.81,32.81,0,0,1,.57,42.24Z"/><path class="cls-1" d="M48.23,48.91a1.44,1.44,0,0,1,0,2.88h0v-.51h0a.94.94,0,0,0,0-1.88h0v-.49Zm0,2.88a1.46,1.46,0,0,1-1.44-1.26h-.4V50.2h.4a1.42,1.42,0,0,1,.71-1.09l-.23-.39.29-.16.22.42a1.33,1.33,0,0,1,.45-.07v.49a.94.94,0,1,0,0,1.88v.51Zm-14.9-1.26V50.2h.15v.33Zm0-26.14v-.52h0a.93.93,0,1,0,0-1.85h0v-.51h0A1.43,1.43,0,0,1,34.77,23a1.39,1.39,0,0,1-.53,1.1l.24.45-.29.15L34,24.23a1.51,1.51,0,0,1-.64.16Zm1,.55.29-.16.31.58-.29.16-.31-.58Zm.46.84.29-.13.31.55-.29.16-.31-.58Zm.47.86.28-.15.31.57-.28.14-.31-.56Zm.46.85.29-.16.31.57-.29.16-.31-.57Zm.47.86.26-.16.31.56-.26.15-.31-.55Zm.46.84.27-.16.31.58-.27.15-.31-.57Zm.44.84.29-.13.31.55-.29.16L37.11,30Zm.47.86.29-.15.31.55-.29.16-.31-.56Zm.46.84.29-.15.31.58-.29.15L38,31.73Zm.47.87.29-.16.31.56-.29.15-.31-.55Zm.46.84.29-.16.31.58-.29.15L39,33.44Zm.47.84.29-.15.28.57-.26.15-.31-.57Zm.46.86.27-.15.31.55-.27.16-.31-.56Zm.45.84.28-.15.32.58-.29.15L40.35,36Zm.46.87.29-.16.31.56-.29.15-.31-.55Zm.47.84.28-.15.31.57-.28.16-.31-.58Zm.46.84.29-.15.31.57-.29.16-.31-.58Zm.46.86.29-.15.31.55-.29.16-.31-.56Zm.47.85.29-.16.29.58-.27.15-.31-.57Zm.46.86.27-.16.31.56-.26.15-.32-.55Zm.47.84.27-.15.31.57-.29.16-.29-.58Zm.44.84.29-.15.31.57-.29.16L44,42.78Zm.47.86.29-.15.31.53-.29.16-.31-.54Zm.46.82.29-.15.31.57-.29.16L45,44.46Zm.47.87.29-.16.31.56-.29.15-.31-.55Zm.46.84.29-.16.29.58-.27.13-.31-.55Zm.47.84.26-.16.31.58-.26.16L46.37,47Zm.46.86.27-.15.31.55-.29.16-.29-.56Zm-13,2.66V50.2h.67v.33Zm1,0V50.2h.64v.33Zm1,0V50.2h.64v.33Zm1,0V50.2h.64v.33Zm1,0V50.2h.64v.33Zm1,0V50.2h.64v.33Zm1,0V50.2h.65v.33Zm1,0V50.2h.64v.33Zm1,0V50.2h.64v.33Zm1,0V50.2h.65v.33Zm1,0V50.2h.66v.33Zm1,0V50.2h.64v.33Zm1,0V50.2h.64v.33Zm-12.09-29V22a.93.93,0,0,0,0,1.85v.52a1.41,1.41,0,0,1-.6-.16l-.22.4-.27-.16.2-.42a1.43,1.43,0,0,1,.89-2.54Zm0,28.69v.33h-.46V50.2Zm-14.9,1.48v-.51a.94.94,0,0,0,0-1.88V48.8a1.24,1.24,0,0,1,.64.16l.2-.38.29.16-.22.39a1.35,1.35,0,0,1,.53,1.07H20v.33h-.11a1.47,1.47,0,0,1-1.42,1.15Zm1.29-3.23-.29-.14.31-.57.26.15-.28.56Zm.44-.84-.29-.16.31-.57.29.15-.31.58Zm.46-.87-.28-.13.31-.58.28.16-.31.55Zm.47-.84-.29-.15.31-.58.27.16-.29.57Zm.44-.86-.29-.13.31-.58.29.16-.31.55ZM22,44.2,21.71,44l.31-.55.29.15L22,44.2Zm.47-.84-.29-.14.31-.57.27.15-.29.56Zm.44-.84-.26-.16.28-.57.29.15-.31.58Zm.47-.87-.29-.13.31-.58.29.16-.31.55Zm.46-.84-.28-.15.3-.58.27.16-.29.57Zm.45-.86L24,39.81l.29-.57.29.15-.31.56Zm.46-.84L24.45,39l.31-.57.29.15-.31.58Zm.47-.87-.29-.13.31-.57.26.15-.28.55Zm.44-.84-.27-.15.29-.58.29.16-.31.57Zm.46-.86-.28-.13.3-.58.29.15-.31.56Zm.47-.84-.29-.16L26.6,35l.27.15-.29.58Zm.44-.87-.26-.13.28-.57.29.15-.31.55Zm.47-.84-.29-.15.31-.58.29.16-.31.57Zm.46-.84L27.66,33l.31-.58.27.16-.29.57Zm.44-.86-.26-.16.28-.57.29.15-.31.58Zm.47-.84-.29-.16.31-.57.29.15-.31.58Zm.46-.87L29,30.43l.31-.58.27.16-.29.57Zm.45-.84-.27-.15.29-.58.28.16-.3.57Zm.46-.86-.29-.16.31-.57.29.15-.31.58ZM30.7,28l-.29-.16.31-.57.26.15L30.7,28Zm.44-.87L30.87,27l.29-.57.29.15-.31.57Zm.46-.84-.29-.15.31-.58.29.16-.31.57Zm.47-.86-.29-.15.31-.58.27.15-.29.58ZM20.29,50.53V50.2h.64v.33Zm.95,0V50.2h.67v.33Zm1,0V50.2h.64v.33Zm1,0V50.2h.64v.33Zm1,0V50.2h.64v.33Zm.95,0V50.2h.64v.33Zm1,0V50.2h.64v.33Zm1,0V50.2h.65v.33Zm1,0V50.2h.64v.33Zm1,0V50.2h.64v.33Zm1,0V50.2h.65v.33Zm1,0V50.2h.66v.33Zm1,0V50.2h.64v.33ZM18.43,48.8v.49a.94.94,0,0,0,0,1.88v.51a1.44,1.44,0,0,1,0-2.88Z"/><path class="cls-1" d="M25.79,17.68a6.15,6.15,0,0,0,3,1.85l.43.12.38-.48a6,6,0,0,1-3.4-1.83,2.88,2.88,0,0,1-.33-.54l2.45-.65-.18-.49-2.51.66c0-.09-.06-.18-.08-.27l-.27-.81-.6.16.28.81a.84.84,0,0,0,.07.26l-2.52.67.16.49L25.14,17a3.77,3.77,0,0,1-1.64,3.71L24,21a4.66,4.66,0,0,0,1.72-3c0-.09,0-.17,0-.27Z"/><path class="cls-1" d="M14,25.79l.35-.5a.05.05,0,0,1,.08,0,2.74,2.74,0,0,1,.5.48l.39-.29a4.93,4.93,0,0,0-.83-.79l-.42.22-.07.9Zm-.33,3.73.08-.94.49-.7c-.15,0-.3,0-.43,0v-.05l.1-.15h0l.16-.85-.2.29.07-.89.06-.11h.66l-.25,1.29h.15l1.16-1.6.4.25-1,1.43.14.05a.85.85,0,0,1,.57.64,1,1,0,0,1-.21.65,2,2,0,0,1-.72.59l-.37-.33a1.54,1.54,0,0,0,.71-.56.37.37,0,0,0,0-.37.65.65,0,0,0-.42-.23l-1.14,1.58Zm.11-4.23L13,26.37,12.86,26a2,2,0,0,0-.35.11,1.38,1.38,0,0,1,0-.29l-.36,0h0L12,25.5s0,0,0,0l0,.44a.61.61,0,0,0,.17-.07,2.06,2.06,0,0,1,0,.43c-.08,0-.15.07-.22.09l0,.44.21-.1a3.6,3.6,0,0,1-.16.5l.44.05c0-.09.09-.33.18-.73l.47-.18-1.25,1.76-.1,1.1.58.37.28-.39-.64-.4s0,0,0-.05l2.15-3,.07-.9h0l0,0-1.53-1a.1.1,0,0,0-.15,0l-.3.42-.06.73,0,0,.45-.63a0,0,0,0,1,.07,0l.17.1-.51.69.34.23.51-.7.17.1-.5.69.34.23.5-.71.21.13Zm-2,2.43,0-.33.14.1-.16.23Zm2.17-1.46-.07.89-1,1.41-.39-.24,1.49-2.06Zm-.14,1.6v.05a.05.05,0,0,1,0,0l0-.06Zm-.06.72-.08.94-.36.48-.4-.25.84-1.17Zm-1.78-3.07-.29.12c0-.1,0-.21,0-.33l-.42.08a1.74,1.74,0,0,1,.06.45c-.24.11-.41.21-.51.24l.18.37a1.39,1.39,0,0,1,.31-.16c0,.15-.08.31-.12.48l.44,0c0-.08,0-.18.07-.29l.15.34h.05l0-.44-.24.1a1.85,1.85,0,0,1,.06-.44L11.9,26l0-.44Zm-.23,2.63-.1,1.1L11.19,29a.08.08,0,0,1,0-.12l.16-.23L9.81,27.7a.09.09,0,0,1,0-.15,4.92,4.92,0,0,0,.6-1.05l.47.09a4.5,4.5,0,0,1-.51.89s0,0,0,.05l.15.1L11,27l.35.23-.48.66.19.11.48-.69.22.13,0,.33-.34.46.19.12.11-.16ZM12,24.42l-.39.54.33.19.06-.73Z"/><path class="cls-1" d="M42,19.26l.66.21a.13.13,0,0,0,.17-.1l1.07-3.07c0-.09,0-.13-.09-.17l-2.35-.73.14,1L41.7,16l1.48.47s0,0,0,.06l-.33.94-1.24-.39.07.53,1,.31-.32.93a.06.06,0,0,1-.07,0l-.46-.15.07.53Zm-.29-.09.29.09-.07-.53-.29-.07.07.51Zm-.25-3.77-.29-.08.07.52h0L41.35,17l.2-.55-.14-1Zm.24,1.67.07.53-.29-.1L41.35,17l.3.08ZM40.93,19l.73.22-.07-.51-.74-.24.08.53Zm.19-3.63-.74-.24.08.53.73.23-.07-.52Zm.07.52L41.35,17h0l.08.51-.23-.06-.35,1-.16-1.14h0l-.07-.53.23.08.34-1Zm-1,2.89-.19.55.13.89.1,0,.47-1.34.23.08-.08-.53h0l-.16-1.14-.34,1-.51-.16.08.53.27.1Zm.19-3.65-1-.28s0,0-.05,0l.14,1,.12-.35s0,0,.06,0l.77.23-.08-.53Zm.24,1.67.07.53-1-.31-.07-.53,1,.31ZM40,19.28l-.28.77.41.12L40,19.28Zm-.63-4.49c-.06,0-.08,0-.11.07L38.18,18c0,.09,0,.13.09.15l1.65.52-.08-.53-1-.3s-.05,0,0-.06l.32-.94.54.17-.07-.53-.31-.09.21-.6-.14-1Z"/><path class="cls-1" d="M56.13,27.4a3.68,3.68,0,0,0,.9.22l.08-.42-.89-1.38h0l-.07-.45L56,25.32l.09,1,.47.75s0,0,0,0a4.49,4.49,0,0,1-.44-.19l0,.51Zm-.89-1.86a7.75,7.75,0,0,0-.06.8c-.24-.21-.47-.43-.7-.65l.06.69q.35.3.66.54a6.91,6.91,0,0,0,.49,1.7l.51-.08a5,5,0,0,1-.5-1.33,4,4,0,0,0,.43.19l0-.51c-.13-.05-.29-.14-.46-.22,0-.28,0-.57,0-.91l.36.55-.09-1a4.14,4.14,0,0,1-.55-.2,2.24,2.24,0,0,1-.54-.4l-.31.35a3.67,3.67,0,0,0,.69.47Zm-.55,2.59L54.59,27l.24-.15.28.43-.32.19.73,1.15-.4.25-.43-.69Zm-.31-3.6-.1-1.14h.48a4.94,4.94,0,0,1,0,1.15l-.37,0Zm.1,1.16c-.18-.16-.34-.33-.5-.49l-.27.29,0,.15c.28.27.54.52.81.74l-.06-.69Zm-.2-2.3.1,1.14h-.17a5.12,5.12,0,0,0,0-1.15ZM54.59,27l.1,1.18-.3-.48-.34.21.67,1-.41.25L54,28.64l-.11-1.28.23-.14-.28-.42-.09-1h0L54.51,27l.08,0Zm-.52,2.61v-.08l0,.05,0,0Zm-.42-4.77-.07-.85h.06a4.05,4.05,0,0,1,0,.86Zm.06.7-.06.06.08.09,0-.15Zm-.13-1.55.07.85c0,.1,0,.19,0,.31l-.54,0a4.43,4.43,0,0,0,0-1.14Zm.16,1.84.09,1L53.34,26l.4-.23Zm.14,1.58-.11.05-.7-1.08-.4.24.7,1.09-.34.19-.59-.92.09,1,.1.14-.08,0,.05.58.29-.17.81,1.23.37-.2v-.08l-.75-1.2.32-.19.36.55-.11-1.28Zm-1.13,3.05-.1-1.12.65,1-.55.16Zm-.4-4.55-.11-1.27.16-.08.54.86c0,.08,0,.12,0,.18l-.54.31Zm-.11-1.27.11,1.27-.68.4a.93.93,0,0,0-.23.36.9.9,0,0,0,0,.72,13.89,13.89,0,0,0,1.22,1.95l.1,1.12h0c-.52-.85-1-1.66-1.52-2.41a1.52,1.52,0,0,1-.14-1.62,1.52,1.52,0,0,1-.59-.08,2.3,2.3,0,0,1-.63-.28l.29-.45a1,1,0,0,0,1.17.29l.91-.54a.06.06,0,0,0,0-.08l-.32-.49.31-.17Zm.2,2.34-.26-.41-.4.24.75,1.18-.09-1Zm.11,1.19-.34.21.28.43.11-.06-.05-.58Z"/><path class="cls-1" d="M42.54,48.85a.75.75,0,0,0,0-1.49.75.75,0,0,0,0,1.49Zm-3.88,6.22-.59.26L37.49,54a12.8,12.8,0,0,1-2.9.62V56H32.42V54.6a12.32,12.32,0,0,1-2.94-.53L29,55.33,28.17,55l-1.24-.51.51-1.26a12.48,12.48,0,0,1-2.52-1.66l-.93,1L22.44,51l.93-.93a14.18,14.18,0,0,1-1.71-2.5L20.47,48l-.84-2,1.19-.48a15.24,15.24,0,0,1-.57-2.95H18.94V40.37h1.33a13.15,13.15,0,0,1,.6-3l-1.24-.51.84-2,1.26.54a12.68,12.68,0,0,1,1.7-2.46l-1-1L24,30.36l1,1a13.4,13.4,0,0,1,2.48-1.62l-.56-1.35,1.24-.53.78-.31.57,1.37a14.69,14.69,0,0,1,2.9-.53V26.89h2.17v1.57a12.22,12.22,0,0,1,2.86.6l.62-1.49.59.25,1.42.59-.62,1.51a11.79,11.79,0,0,1,2.39,1.64L43,30.36l1.55,1.57L43.4,33.11A13.07,13.07,0,0,1,45,35.5l1.55-.65.84,2-1.54.65a13.78,13.78,0,0,1,.57,2.83h1.66v2.19H46.41a12,12,0,0,1-.53,2.81l1.5.62-.84,2-1.48-.62a13.75,13.75,0,0,1-1.59,2.43L44.57,51,43,52.52l-1.1-1.11a13.05,13.05,0,0,1-2.41,1.69l.57,1.39-1.42.58ZM34.59,30.65v1.77H32.42V30.63a10.94,10.94,0,0,0-4.25,1.26,11.18,11.18,0,0,0-3.32,2.75l3.32,2.19,1.07.7-.35,2.4-.72-.47-4.51-3a10.72,10.72,0,0,0,0,10.16l4.49-2.9.18-.11L28.15,45h2.08l-2.06,1.33-2.08,1.35H24.32v1H25a11.24,11.24,0,0,0,3.13,2.52,10.94,10.94,0,0,0,4.25,1.26V50h2.17v2.37A10.45,10.45,0,0,0,38.66,51a10.93,10.93,0,0,0,3.1-2.59l-3.1-2.06L36.54,45h2.21l-.19-1.29.1.08L43,46.61a10.65,10.65,0,0,0,1.28-5.09,10.78,10.78,0,0,0-1.17-4.89l-4.43,2.88L38,40l-.36-2.38,1-.68,3.26-2.12A11,11,0,0,0,38.66,32a11.15,11.15,0,0,0-4.07-1.33ZM31.74,44l-.3.19.1-.19Zm2.85,0v2.19H32.42V44Zm1.18.46L35.06,44h.53l.18.46Zm-3.35,4.76V47.12h2.17v2.12Z"/><path class="cls-1" d="M33.44,44h2.15L36,45h2.79l-1.46-9.58h-2l1.46-3h-6.6l1.55,3H29.54L28.15,45h2.9l.49-1Zm0-12.15h4.23l-1.46,3h1.57l1.64,10.7H35.59l-.4-1h-3.3l-.49,1H27.49l1.57-10.7h1.72l-1.52-3Z"/><path class="cls-1" d="M42.54,48.85a.75.75,0,0,0,0-1.49.75.75,0,0,0,0,1.49Zm-10.78.39V50h3.58v-.76Zm-.4-2.58.44.46H35l.46-.46L35,46.21H31.8l-.44.45Zm-7,1v1h1.95v-1Zm9.27,1.26h2.06v.45h1.91l1.37-1.15L37.38,47H36.05l-.55.53H31.38L30.85,47H29.46L28.28,48.2l1.15,1.18h1.93v-.45Zm0-3.09H35.5l.6.75h1.46L39.48,48h2.31a.74.74,0,0,1,.75-.66.78.78,0,0,1,.75.77.77.77,0,0,1-.75.76.78.78,0,0,1-.69-.42H39.51l-1.73,1.31-2.13,0v.46H31.36v-.46H29.3l-1.57-1.35H26.67v.48H24v-1.5h2.64l0,.62h1.06l1.55-1.44h1.51l.59-.75Z"/><path class="cls-1" d="M35.61,39.17v2.48h-.2V38.82l.64-.64-.62-.62h0v-.51l0,0,1.44,1.38-.24.2-.27-.25-.75.82Zm-.2,3.57v-.56h1.68v.56Zm0-1.09h-.18V39.19l-.71-.75-.19.22-.25-.24,1.33-1.37v.51l-.64.64.64.62h0v2.83Zm0,.53H33.77V34.37h1.06v-.58H33.77V33h-.51v.79H32.18v.58h1.08v7.81H31.82v.56h1.44v.77h.51v-.77h1.64v-.56Zm-3.59-1.3v-.64l.91-.91.33.31-.91.91.91.9-.33.31-.91-.91v0Zm0-1.82v-.35h.67v-.49h-.67v-.4h.67V37.4h-.67V37h1v2Zm0-2v.38h-.64s0,0,0,.05v.33s0,0,0,0h.64v.4h-.64s0,0,0,.05v.42s0,0,0,0h.64v.35H31a.19.19,0,0,1-.19-.2V37.29a.26.26,0,0,1,.24-.27Zm0,3.19v.67l-.9.88-.31-.31.9-.9-.9-.91.31-.31.9.88Zm0,2v.56h-1.9v-.56Z"/><path class="cls-2" d="M37.07,65.51l.6-.17.21.73.68-.19.06.21-1,.3.33,1.12,1-.3.07.24-1.17.33.12.42,1.17-.33.08.29-1.09.31.12.42,1.09-.31.08.28-1.23.44.12.28c.05.1.08.16.11.17s.06,0,.09-.09l2.43-1a.13.13,0,0,1,.06.07s0,0,0,0l.46.1a5.22,5.22,0,0,0,.16-1.67,12,12,0,0,0-.25-1.9l.6-.17.28.94c.07.25.13.5.18.74a4.9,4.9,0,0,1,.11.69.58.58,0,0,1-.07.4.5.5,0,0,1-.3.22l-.27.08.35.41.16-.09a1.3,1.3,0,0,0,.46-.35A.72.72,0,0,0,43,67.7a3.56,3.56,0,0,0-.08-.67c0-.26-.12-.54-.2-.87l-.45-1.57-1,.3-.35-1.23c0-.07.06-.11,0-.14s-.07,0-.15,0l-.36.09.4,1.4-.73.21.12.41.74-.24a10.42,10.42,0,0,1,.23,2,3.33,3.33,0,0,1-.27,1.39l-.14-.49-1,.37-.07-.25.92-.27-.12-.42-.92.26-.08-.28,1-.29L40.43,67l-1,.29-.07-.24,1-.29-.32-1.12L39,66,39,65.76l.63-.18-.21-.74.57-.16-.12-.42-.57.16-.1-.34s0-.08,0-.09a.3.3,0,0,0-.16,0l-.33.07.14.47-.89.25-.09-.3h0c.06-.06.08-.11.05-.13s-.08,0-.2,0l-.3.07.13.48-.6.17.12.42Zm1-.29L39,65l.09.32-.88.25-.1-.31Zm0,1.47.63-.18.08.28-.63.18-.08-.28Zm1-.3.59-.17.08.28-.59.17-.08-.28Z"/><path class="cls-2" d="M48.79,62l.32-.29-.21-.23,1.14-1,.48.53.32-.29-.48-.54,1.06-.95.21.23.33-.3L50.49,57.5,49.1,58.75l-.32-.36a.25.25,0,0,0,0-.13s0,0-.06,0l-.42.23.48.53-1.46,1.32L48.79,62Zm-.85-1.6,1.13-1,.68.75-1.14,1-.67-.75Zm1.45-1.31,1.07-1,.68.75-1.07,1-.68-.75Zm-.06,3.31c.11.25.2.52.29.79a5.33,5.33,0,0,1,.17.76l.51-.07a6.17,6.17,0,0,0-.18-.71,5.24,5.24,0,0,0-.3-.78.8.8,0,0,0,0-.15s0,0-.08,0l-.45.14Zm1.38.3a.72.72,0,0,0,.43.25.54.54,0,0,0,.44-.13l1.33-1.2a.38.38,0,0,0,.12-.28,1.4,1.4,0,0,0-.1-.39l-.1-.28-.45.11.11.31a.33.33,0,0,1,0,.22.5.5,0,0,1-.12.19l-.87.79c-.16.13-.29.17-.38.12a.72.72,0,0,1-.25-.18l-.53-.58a1.12,1.12,0,0,0,0-.22s0,0-.06,0l-.48.3.86,1Zm.19-1.39a2.73,2.73,0,0,1,.57,0,1.88,1.88,0,0,1,.47.13L52,61l-.53-.05a4.79,4.79,0,0,0-.52,0l-.09.41ZM52,60.2a6,6,0,0,1,.79.11c.27.07.52.14.75.22l.08-.5a7.5,7.5,0,0,0-.78-.18,5.53,5.53,0,0,0-.77-.09L52,60.2Z"/><path class="cls-2" d="M27.22,66.49a5.68,5.68,0,0,1-.31,1.11,2.42,2.42,0,0,1-.56.86L26.64,67l-1.59-.31-.37,1.89.43.08.06-.32.73.14-.06.32.43.09.06-.31.29.38a1.93,1.93,0,0,0,.41-.54,2.36,2.36,0,0,0,.25-.57l.25.51.12,0a.79.79,0,0,0,.56-.42,3.74,3.74,0,0,0,.36-1.13l.12-.58L27.76,66l.16-.82,1.15.22q-.13.84-.18,1.53a6.11,6.11,0,0,0,0,1.15,2.2,2.2,0,0,1-.59.46,3.43,3.43,0,0,1-.76.33l.22.4A2.64,2.64,0,0,0,28.4,69l.61-.41a2.86,2.86,0,0,0,.15.55,1.07,1.07,0,0,0,.19.37q.12.19.33,0a4.31,4.31,0,0,0,.5-.76l-.28-.44-.16.34a1.2,1.2,0,0,1-.16.25,1,1,0,0,1-.14-.25,1.91,1.91,0,0,1-.06-.37l.43-.62c.17-.26.35-.55.53-.89.07,0,.11,0,.11-.1s0-.11-.1-.16l-.34-.2a5,5,0,0,1-.27.65,4.28,4.28,0,0,1-.44.67c0-.36,0-.71.06-1.07a8.83,8.83,0,0,1,.16-1l1.14.22.08-.43-1.18-.23.15-.75c.08,0,.13-.1.14-.16s0-.08-.09-.11l-.42-.14L29.13,65l-1.55-.3-.36,1.81Zm1,.05a3.1,3.1,0,0,1-.26,1,.42.42,0,0,1-.42.24l-.2,0c.07-.21.14-.43.21-.67s.12-.47.17-.69l.5.1Zm-2.8.66.73.14-.13.71-.73-.14.13-.71Zm.31-3.33,1.38.26.09-.43-1.39-.26-.08.43Zm-.44.74,1.88.36.08-.43-1.88-.36-.08.43Zm.09.87,1.42.27.08-.43-1.42-.27-.08.43Zm-.17.83,1.43.27.08-.42-1.42-.28-.09.43ZM30,64.45l.28.33a1,1,0,0,1,.15.33l.36-.3a1.79,1.79,0,0,0-.22-.34,2.56,2.56,0,0,0-.27-.29l-.3.27Z"/><path class="cls-2" d="M16.15,58.26a2,2,0,0,0,.33,0l.39-.06.38.31-.11.51.38.19.07-.43.64.52.25-.32-1.08-.88.08,0,.07,0a.35.35,0,0,0,.17,0,.08.08,0,0,0,.06-.08l-.3-.41a3.79,3.79,0,0,1-.72.21,5.39,5.39,0,0,1-.76.09l.15.39Zm-2.32,3.27q.2-.14.39-.3a2.83,2.83,0,0,0,.35-.34l-.33-.29-.37.29-.4.27.36.37Zm.8-.78L15,61l.14-.18L18,63.18a1.68,1.68,0,0,1-.55.49.42.42,0,0,1-.46-.06,1.53,1.53,0,0,0-.23-.17l-.2-.14-.11.54.2.12.2.14a.71.71,0,0,0,.43.1,1.1,1.1,0,0,0,.48-.2l.46-.43c.14-.15.27-.29.38-.43l-1.7-1.37.18-.22,1.45,1.18.25-.32-1.45-1.17.2-.24L19,62.17l.25-.31-1.45-1.18.22-.26,1.59,1.29.26-.32-3.46-2.8-1.75,2.16Zm1.81-1.59,1.23,1-.21.27-1.24-1,.22-.27Zm-.47.59,1.23,1L17,61l-1.23-1,.19-.23Zm-.45.55,1.23,1-.17.21-1.23-1,.17-.22Zm-.55,1c0,.13-.09.28-.15.43s-.13.29-.2.43l.4.16a2.55,2.55,0,0,0,.2-.44,4.16,4.16,0,0,0,.12-.44L15,61.26Zm3.28-1.36.25,0,.31-.1.55.44-.11.52.38.2.09-.42.66.53.26-.31L19.27,59.6l.13-.05.08,0c.06,0,.1,0,.13,0s0,0,0-.07l-.3-.4a5,5,0,0,1-.62.27,3.3,3.3,0,0,1-.63.17l.17.39Zm-2.42,2c0,.12-.06.25-.1.4l-.15.42.41.2a2.69,2.69,0,0,0,.16-.45,1.72,1.72,0,0,0,0-.44l-.36-.13Zm.84.69a1.92,1.92,0,0,0-.05.29l-.06.32.46.09a1.82,1.82,0,0,0,.06-.35,1.93,1.93,0,0,0,0-.34Z"/><path class="cls-1" d="M161.56,19a.67.67,0,0,0-.34-.59.49.49,0,0,0-.21,0,.39.39,0,0,0-.15-.06l-.25,0c-.16,0-.26,0-.29-.06a.35.35,0,0,0-.25-.15.31.31,0,0,0-.27.11.13.13,0,0,1-.12,0h-.11c-.19,0-.37,0-.43.19s-.1.11-.31.17h0l-.09,0a.59.59,0,0,0-.77.12.67.67,0,0,0-.06.12.92.92,0,0,0-.09.28.46.46,0,0,0-.26.16l-.09,0a.47.47,0,0,1-.15.06l0,0a.82.82,0,0,0-.21-.28h0a.45.45,0,0,0-.34-.1l-.18,0a1,1,0,0,0-.48-.18l-.14,0a.23.23,0,0,0-.2-.12.61.61,0,0,0-.36,0,.69.69,0,0,0-.27-.11.85.85,0,0,0-.47-.09h0a.42.42,0,0,0-.28-.11.26.26,0,0,0-.19.06l-.11,0-.08-.07a.55.55,0,0,0-.56-.22.41.41,0,0,0-.11-.07,1.3,1.3,0,0,0-.31-.06c-.05,0-.13,0-.12,0a.33.33,0,0,0-.46-.17.67.67,0,0,0-.25,0,.44.44,0,0,0-.23,0,.36.36,0,0,0-.25,0l-.05,0a.43.43,0,0,0-.2,0,.37.37,0,0,0-.24-.05.42.42,0,0,0-.36,0h-.12a.81.81,0,0,0-.18-.19l-.11,0a1.57,1.57,0,0,0-.61,0,.85.85,0,0,1-.35,0,.29.29,0,0,0-.28.08.1.1,0,0,0,0,.05H149s0,0,0,0a.63.63,0,0,0-.36-.1l-.15,0-.06-.1a.32.32,0,0,0-.1-.1,1.54,1.54,0,0,0-.77-.14h-.23a.35.35,0,0,0-.17,0l-.14,0a.63.63,0,0,0-.51,0,.34.34,0,0,0-.32.13.45.45,0,0,0-.52.14.74.74,0,0,0-.19.15h-.08a.52.52,0,0,0-.46-.09l-.06,0a.72.72,0,0,0-.47-.07.22.22,0,0,0-.13.06.45.45,0,0,1-.24,0,1.29,1.29,0,0,0-.61-.28.8.8,0,0,1-.21-.05.65.65,0,0,0-.69.05h0a.53.53,0,0,0-.4-.2,1.24,1.24,0,0,0-.46.11l-.18.05-.07,0a.73.73,0,0,0-.22,0,14.82,14.82,0,0,1-2.25.19.34.34,0,0,0-.17.05l0,0a.32.32,0,0,0-.3,0l-.07.05a.64.64,0,0,0-.34.05l-.13,0a.3.3,0,0,0-.35.11.54.54,0,0,0-.55.09l-.07.05a10.74,10.74,0,0,0-1.56.07l-.67,0a.2.2,0,0,0-.11,0l-.13,0c-.22.08-.48.18-.62.11a.31.31,0,0,0-.32,0h0a.53.53,0,0,0-.47.14l-.06.08a.91.91,0,0,0-.33.31h0a.92.92,0,0,0-.35-.32.36.36,0,0,0-.25,0l-.11.06a.38.38,0,0,0-.53,0,.34.34,0,0,0-.17-.05.26.26,0,0,0-.24.09l-.11.14a.34.34,0,0,1-.17-.1.44.44,0,0,0-.22-.07.3.3,0,0,0-.26.11.54.54,0,0,0-.53-.09.6.6,0,0,0-.54.4l-.05.09a.22.22,0,0,0-.09.1.86.86,0,0,0-.07.25h-.05a.33.33,0,0,0-.22.31c0,.05,0,.09-.19.21l0,0a.85.85,0,0,0-.33.05.33.33,0,0,0-.26.13.43.43,0,0,0-.06.22h0a.51.51,0,0,0-.13.29.5.5,0,0,0,.21.35.26.26,0,0,0,.16.09.19.19,0,0,1,0,.11.32.32,0,0,0-.09.23.55.55,0,0,0,.17.42.36.36,0,0,0,0,.09.31.31,0,0,0,0,.28,1.31,1.31,0,0,0,.31.33.68.68,0,0,0-.17.49.17.17,0,0,1,0,.08.74.74,0,0,0,.12.46s0,0,0,0a.32.32,0,0,0,.08.28s0,.06,0,.09a.94.94,0,0,0,.08.36l-.05.06a1.91,1.91,0,0,0-.14.21.27.27,0,0,0,0,.12.24.24,0,0,0-.06.11.36.36,0,0,0,.14.43,1.06,1.06,0,0,0,.41.67l.1.09a.94.94,0,0,0,.23.54.08.08,0,0,0,0,0,.71.71,0,0,0,.08.3.34.34,0,0,0,.08.18.32.32,0,0,0,.06.37.79.79,0,0,1,.25.51.5.5,0,0,0,.22.51,1,1,0,0,0-.12.46.37.37,0,0,1-.06.23.32.32,0,0,0-.07.28v.09a.76.76,0,0,0,0,.41.53.53,0,0,0,.19.41.2.2,0,0,0,0,.17,1,1,0,0,1,0,.12,1.33,1.33,0,0,0-.08.33,1.09,1.09,0,0,0-.08.39.38.38,0,0,0-.14.21,1.1,1.1,0,0,1-.26.45,1.93,1.93,0,0,0-.33.52.24.24,0,0,0,0,.08,1.05,1.05,0,0,0,0,.44c0,.16,0,.22,0,.26a.3.3,0,0,0-.06.27.27.27,0,0,0,.19.2l.05.08a.54.54,0,0,0,.48.35l.16,0a1.66,1.66,0,0,1,.33,0,1.77,1.77,0,0,0,.32,0,.37.37,0,0,0,.2-.12c.1-.13.28-.13.51-.12h.23a.56.56,0,0,0,.23-.07l.14,0a.79.79,0,0,0,.22.06,2,2,0,0,0,.34.12c.12,0,.18.06.19.09a.36.36,0,0,0,.2.18h.09a.37.37,0,0,0,.3.14.53.53,0,0,0,.17,0,.29.29,0,0,0,.15-.12h0a.92.92,0,0,0,.25-.1.4.4,0,0,0,.24,0,.41.41,0,0,0,.22-.07.41.41,0,0,0,.2-.12.82.82,0,0,0,.39-.11l.11,0a.32.32,0,0,0,.2-.08.46.46,0,0,1,.2,0h.15l.08,0a.33.33,0,0,0,.07.16c.15.21.41.17.51.2a3.31,3.31,0,0,0,.54-.06.81.81,0,0,0,.53-.13s.06-.06.12,0a1.29,1.29,0,0,0,.72.13,4.28,4.28,0,0,0,1.08-.13h0a.36.36,0,0,0,.08.09.32.32,0,0,0,.35.07l0,0a.43.43,0,0,0,.39-.19.44.44,0,0,0,.29-.13l.17,0a1.26,1.26,0,0,0,.58,0,.29.29,0,0,0,.12-.07.76.76,0,0,1,.34,0,.14.14,0,0,0,0,.06l0,.06a.54.54,0,0,0-.19.53.36.36,0,0,0-.07.1.54.54,0,0,0,.25.69s0,0,0,0-.05.12-.06.16,0,.21.1.28a.58.58,0,0,1,0,.1.65.65,0,0,0,0,.39,4.6,4.6,0,0,1,.1.8,1,1,0,0,0-.14.4.71.71,0,0,1,0,.17.31.31,0,0,0-.07.2.44.44,0,0,0-.1.52s0,0,0,.08.05.2,0,.25a.31.31,0,0,0-.18.19.41.41,0,0,0,0,.42.44.44,0,0,0,.38.19s0,0,0,0a.71.71,0,0,0,0,.37,1.6,1.6,0,0,0,.11.35.75.75,0,0,1,.07.24.36.36,0,0,0,.11.28.55.55,0,0,0,.13.45l0,0a.65.65,0,0,0-.16.47.55.55,0,0,0,.16.3,1.38,1.38,0,0,0,.62.8l.08,0a.25.25,0,0,0,0,.08,1,1,0,0,0,0,.51.45.45,0,0,0,.31.36.05.05,0,0,0,0,0,.53.53,0,0,0,.28.75s.05,0,.05,0h0a.51.51,0,0,0,.19.53.32.32,0,0,0,.19.07.41.41,0,0,0,.4-.26s0-.07,0-.13a.65.65,0,0,1,.18-.05,1.12,1.12,0,0,0,.33-.1.31.31,0,0,0,.18-.28.61.61,0,0,0-.08-.28l.05,0a.67.67,0,0,0,.3-.52.34.34,0,0,0,0-.17c-.08-.13-.08-.24-.06-.26a.33.33,0,0,0-.11-.41v-.12a.78.78,0,0,0-.15-.57s0-.08-.06-.2a1.49,1.49,0,0,0-.09-.31,1,1,0,0,1,.07-.26.71.71,0,0,0,.3-.71.66.66,0,0,0,.08-.59s0-.06,0-.09h0a.3.3,0,0,0,.07-.26l.06-.09a.39.39,0,0,0,.08-.1.32.32,0,0,0,0-.41s0,0-.06-.06a.57.57,0,0,0-.09-.29.53.53,0,0,0,.09-.4.39.39,0,0,0-.16-.24h0l0,0,.13-.12a.29.29,0,0,0,.09-.24.28.28,0,0,0-.11-.22.33.33,0,0,1,0-.1v-.14a.72.72,0,0,0,.15-.45.37.37,0,0,0-.07-.2s0,0,0-.16a1,1,0,0,0,0-.31c0-.13,0-.26.06-.37a.92.92,0,0,1,.09-.38.37.37,0,0,0,.06-.32.62.62,0,0,0-.09-.51v0a.51.51,0,0,0,0-.21,1,1,0,0,0,.05-.33.62.62,0,0,0,.28-.11.74.74,0,0,1,.28-.11,1.45,1.45,0,0,0,.26-.07,1.1,1.1,0,0,0,.36,0s.07,0,.08,0a.33.33,0,0,0,.34.08,1.52,1.52,0,0,1,.9-.08.33.33,0,0,0,.33-.07.34.34,0,0,1,.17-.09.51.51,0,0,0,.43.17h.09a.8.8,0,0,0,.43-.09h0a.86.86,0,0,0,.45,0,2.27,2.27,0,0,0,.42,0h.37l.37,0h.27a.42.42,0,0,0,.61,0,2.87,2.87,0,0,1,.41,0,2.22,2.22,0,0,0,.58,0,.56.56,0,0,0,.28-.17l.22,0,.15,0a.21.21,0,0,0,.25,0l.1,0a1.25,1.25,0,0,0,.31,0h.36a.76.76,0,0,0,.45-.12,1.15,1.15,0,0,0,.57-.34,1,1,0,0,1,.22-.17,1,1,0,0,0,.49-.48.65.65,0,0,1,.22-.26.3.3,0,0,0,.18-.23.25.25,0,0,0,0-.19v0a.23.23,0,0,0-.08-.29.47.47,0,0,1,.07-.16.42.42,0,0,0,0-.19l.1-.12a.32.32,0,0,0,0-.34l-.15-.22a.68.68,0,0,1,.14-.18,1.66,1.66,0,0,0,.16-.21.43.43,0,0,0,.14-.26.36.36,0,0,0,.09-.24l.15-.09a1,1,0,0,0,.25-.14.27.27,0,0,0,.1-.06.54.54,0,0,0,.25-.1.33.33,0,0,0,.17-.34l.05-.09a.8.8,0,0,0,.14-.39,1.2,1.2,0,0,0,.22-.39.5.5,0,0,1,.11-.2.31.31,0,0,0,.14-.26c0-.08.11-.19.22-.29a1.37,1.37,0,0,0,.31-.36.24.24,0,0,0,0-.15l0-.08a.79.79,0,0,0,.16-.39.6.6,0,0,0,0-.41.5.5,0,0,0,0-.12V25a1.36,1.36,0,0,1,.05-.54.25.25,0,0,0,0-.15.81.81,0,0,1,.09-.28,1.1,1.1,0,0,0,.15-.62l.11-.12a1.32,1.32,0,0,0,.21-.25.58.58,0,0,0,.21-.12l.08-.05a1.71,1.71,0,0,0,.33-.4,1.25,1.25,0,0,1,.19-.26.38.38,0,0,0,.24-.08l.07,0a.3.3,0,0,0,.17-.18.33.33,0,0,0,.15-.27.54.54,0,0,0,0-.39.36.36,0,0,0-.06-.27.66.66,0,0,0,.19-.46,1.72,1.72,0,0,1,.27-1.05.32.32,0,0,0-.06-.38A.34.34,0,0,0,161.56,19Zm-5.15,3.5a.44.44,0,0,0-.31.15.28.28,0,0,0-.11.08l-.08.07a.37.37,0,0,0-.07.12.33.33,0,0,0,0,.33c0,.08,0,.11,0,.12a.42.42,0,0,0,0,.54.26.26,0,0,0,0,.15.55.55,0,0,0-.15.41,1,1,0,0,0-.14.35h0a.54.54,0,0,0-.33.59.24.24,0,0,0,.05.13s-.06.09-.09.16a.32.32,0,0,0-.14.16s0,0,0,0a.29.29,0,0,0-.19.17.41.41,0,0,0-.15.17.44.44,0,0,0,.06.43.33.33,0,0,0,0,.17c0,.05,0,.07-.11.23a1.11,1.11,0,0,0-.28.48.32.32,0,0,0-.14.12,1.46,1.46,0,0,0-.21.87l0,0a.63.63,0,0,0-.2.13,2.57,2.57,0,0,0-.5.85,1.65,1.65,0,0,1-.36.6.78.78,0,0,0-.27.17l-.74,0c-.29,0-.57,0-.85,0H151l-.06,0a.33.33,0,0,0-.15-.11.28.28,0,0,0-.18,0,.31.31,0,0,0-.43.12v.32h0l-.09-.32a.44.44,0,0,0-.15,0l0,0a1,1,0,0,0-.48-.05.78.78,0,0,0-.26-.07l-.08,0a.3.3,0,0,0-.23-.16.81.81,0,0,0-.49.12s0,0,0,0l-.09,0a.49.49,0,0,0-.52.13h0a.89.89,0,0,0-.45-.15h-.14L147,30l-.14.08a.7.7,0,0,1-.25.12.29.29,0,0,0-.22.09h0a.47.47,0,0,0-.51,0,.48.48,0,0,0-.2-.24l-.16-.08a.36.36,0,0,0-.45.1l-.1,0a.65.65,0,0,0-.11-.36,1.33,1.33,0,0,0,0-.21.33.33,0,0,0,0-.29h0a.55.55,0,0,0-.05-.38.06.06,0,0,0,0,0,.69.69,0,0,0-.07-.54.32.32,0,0,0,.1-.19c0-.12,0-.23,0-.35a.68.68,0,0,1,0-.35.32.32,0,0,0,0-.3.94.94,0,0,0-.12-.22l-.06-.12.06-.13a8.9,8.9,0,0,0,1.15,0,1,1,0,0,0,.8-.06h.18a3,3,0,0,0,.44,0s.09-.07.12-.1a1.34,1.34,0,0,0,.34.17l.16.06a.38.38,0,0,0,.13.06h.11a1,1,0,0,0,.24,0l.11.08.08,0a.24.24,0,0,0,.15,0,.53.53,0,0,0,.26.06l.07-.05a.33.33,0,0,0,.24.14h.1a.44.44,0,0,0,.34,0,1.33,1.33,0,0,1,.24-.1c.13.15.28.2.57.11a.45.45,0,0,0,.33,0,.73.73,0,0,0,.18,0l.1,0a.35.35,0,0,0,.24.06,1.2,1.2,0,0,0,.79-.62l.08-.13a.28.28,0,0,0,.06-.18.44.44,0,0,0,.11-.41c0-.09,0-.11-.11-.15s0-.06,0-.09a.64.64,0,0,0-.14-.52.93.93,0,0,0-.13-.29.33.33,0,0,0-.13-.26.66.66,0,0,0-.67-.44l-.15,0a.27.27,0,0,0-.17-.06,1.23,1.23,0,0,0-.54.14,1.07,1.07,0,0,0-.31,0,.43.43,0,0,1-.2,0,.33.33,0,0,0-.22,0,.69.69,0,0,1-.28,0,.68.68,0,0,0-.25-.07.44.44,0,0,0-.47.08.27.27,0,0,0-.09,0,.82.82,0,0,1-.27,0,.61.61,0,0,0-.33,0,.3.3,0,0,0-.29,0,1.18,1.18,0,0,0-.19.11s-.15.1-.15.12a.68.68,0,0,0-.78,0h0a.9.9,0,0,0-.49,0,.54.54,0,0,0-.29-.07.44.44,0,0,0-.36,0,.3.3,0,0,0-.21,0l0,0a.92.92,0,0,0-.5-.05h-.05a.72.72,0,0,0-.1-.36.14.14,0,0,0,0-.07.31.31,0,0,0,0-.28.52.52,0,0,1,0-.14c0-.07,0-.16,0-.25a1,1,0,0,0,0-.45v0a.36.36,0,0,0,0-.09v0a.52.52,0,0,0,.17-.35,1.06,1.06,0,0,0,.09-.81h0a.53.53,0,0,0,0-.12v0a1,1,0,0,0,0-.33,1.54,1.54,0,0,1,0-.19.33.33,0,0,0,.23-.25.38.38,0,0,0,.16-.28.43.43,0,0,0,.32-.05A.66.66,0,0,0,146,20l.12.06a.84.84,0,0,0,.73.09.05.05,0,0,0,0,0h0a.41.41,0,0,0,.38.11.27.27,0,0,0,.26,0h.14a.45.45,0,0,0,.34,0,2.1,2.1,0,0,1,.43-.05,4.16,4.16,0,0,0,.77.07,2.52,2.52,0,0,1,.7.07.3.3,0,0,0,.16,0,.68.68,0,0,0,.29.07.81.81,0,0,0,.68.21,1.07,1.07,0,0,0,.57,0l.19,0a.29.29,0,0,0,.16,0,.4.4,0,0,0,.64,0h.14a1.11,1.11,0,0,0,.44-.09.53.53,0,0,0,.39.08,1,1,0,0,0,.38,0,.44.44,0,0,1,.17,0,3.45,3.45,0,0,0,.64.05l.09.08a.66.66,0,0,0,.64.24l.09,0a1.16,1.16,0,0,0,.76,0v0a.66.66,0,0,0,.44.22l.07.06.19.16a.34.34,0,0,0-.05.17.53.53,0,0,1-.07.18,1.26,1.26,0,0,0-.12.26l-.44.41Zm-11.78,2.09Zm-11.26,6.75-.09-.32a.88.88,0,0,0-.3,0,1.19,1.19,0,0,0-.32-.05.38.38,0,0,0-.48.13H132a.44.44,0,0,1,0-.39.41.41,0,0,0,.05-.09,1.11,1.11,0,0,0,0-.81c-.06-.2-.07-.27,0-.36a.49.49,0,0,0,0-.11.52.52,0,0,0-.09-.39.13.13,0,0,0,0-.06.35.35,0,0,0-.08-.22.43.43,0,0,0,0-.05.78.78,0,0,0,.07-.3.49.49,0,0,0,.18-.44.67.67,0,0,0,.11-.3l.13-.2a.32.32,0,0,0,0-.27.68.68,0,0,0-.48-.43l0-.08a1.26,1.26,0,0,0,.12-.5.54.54,0,0,0-.06-.25.71.71,0,0,0-.07-.32h0a.54.54,0,0,0-.11-.64,1,1,0,0,0,0-.32l.06-.11a.83.83,0,0,0-.08-.74c0-.19,0-.36,0-.54s0-.21,0-.32a.3.3,0,0,0-.11-.24.74.74,0,0,1,0-.15.66.66,0,0,0-.14-.54,1.58,1.58,0,0,0,.16-.27.33.33,0,0,0,.12-.27,1.48,1.48,0,0,1,.25-.08,1.43,1.43,0,0,0,.28-.07.44.44,0,0,0,.26.09.36.36,0,0,0,.21-.07.32.32,0,0,0,.18-.06.31.31,0,0,0,.09-.11.64.64,0,0,0,.2-.16.39.39,0,0,0,.26,0,.72.72,0,0,1,.3,0l.24,0a1.07,1.07,0,0,0,.63.09H135l.1,0c.15,0,.35,0,.4,0l.07.05a.44.44,0,0,0,.24.07.39.39,0,0,0,.38-.31l0-.05c.07-.11.2-.13.41-.17l.22,0a1.86,1.86,0,0,0,.58.1h.1a.43.43,0,0,0,.58,0,0,0,0,0,0,0,0,.84.84,0,0,0,.18,0,.66.66,0,0,0,.39.15.18.18,0,0,1,.1,0A.32.32,0,0,0,139,21a.72.72,0,0,1,.22.14,1.22,1.22,0,0,0,.4.24.71.71,0,0,0,.62.39.34.34,0,0,0,.21.18.73.73,0,0,0,.09.11.38.38,0,0,0,.38.06.53.53,0,0,0,.44,0,1.15,1.15,0,0,1,.21.46l.06.21a10.06,10.06,0,0,1,0,1.33l-.58.64a.57.57,0,0,0-.56-.23.79.79,0,0,0-.48.12.36.36,0,0,1-.13.05.38.38,0,0,0-.21,0,.42.42,0,0,1-.18,0l-.16,0a.46.46,0,0,0-.45-.28.3.3,0,0,0-.26.13.44.44,0,0,0-.28.09.46.46,0,0,0-.17,0,1.47,1.47,0,0,0-.62,0l-.08,0h0a.8.8,0,0,0-.53,0l-.15,0-.08,0A.72.72,0,0,0,136,25l-.2,0h-.24a.35.35,0,0,0-.4.26.56.56,0,0,0-.18.68.31.31,0,0,0,.19.18s.05.16,0,.27a.56.56,0,0,0,0,.52.47.47,0,0,0,.38.21.29.29,0,0,0,.16,0s.1,0,.08-.06a.28.28,0,0,0,.15.08,1.5,1.5,0,0,0,1-.09,2.89,2.89,0,0,1,.77-.09.29.29,0,0,0,.23-.1h.18a1.63,1.63,0,0,0,.36-.05,1.34,1.34,0,0,0,.49,0l.12,0a.33.33,0,0,0,.37.09.63.63,0,0,0,.56,0,.57.57,0,0,0,.31-.16,1.79,1.79,0,0,1,.33,0c.11,0,.21,0,.32,0l.13.1a1.58,1.58,0,0,1,.45.44,1.71,1.71,0,0,0,.05.46,1.87,1.87,0,0,1,0,.32.83.83,0,0,0,0,.62s.05.09.06.09h0a.32.32,0,0,0,0,.34,1.33,1.33,0,0,1,0,.54v.11a.56.56,0,0,0,.06.37.37.37,0,0,0-.14.22v0a.41.41,0,0,0-.1.18l-.06,0a1,1,0,0,0-.25.07,1.6,1.6,0,0,0-.3-.08c-.13,0-.26,0-.39.06a3.31,3.31,0,0,1-.55.06h0l0,0a.3.3,0,0,0-.3-.09.48.48,0,0,0-.43-.07H139l0,.33-.05-.32a.29.29,0,0,0-.14-.08l-.13,0a.34.34,0,0,0-.27.1l-.16,0a.58.58,0,0,0-.38.15,1.27,1.27,0,0,1-.94,0,.57.57,0,0,0-.32,0h-.08a.27.27,0,0,0-.1-.08.6.6,0,0,0-.62.05.33.33,0,0,0-.39-.05.39.39,0,0,1-.15,0,1,1,0,0,0-.49.18,3.57,3.57,0,0,0-.45.19l0,0h-.17a.27.27,0,0,0-.22,0,.53.53,0,0,0-.15-.05.29.29,0,0,0-.24.13h-.14v.32Z"/><path class="cls-1" d="M202.22,37.71a.23.23,0,0,0,.17,0,.19.19,0,0,0,.1.05.31.31,0,0,0,.29-.09l.09-.09.11,0,.09,0a.31.31,0,0,0,.34-.1h.09a.84.84,0,0,0,.58-.28l0,0h.05a.34.34,0,0,0,.29-.17.86.86,0,0,0,.19-.11s.06,0,0-.05a.33.33,0,0,0,.33,0,.51.51,0,0,0,.15-.14.33.33,0,0,0,.06-.1.46.46,0,0,0,.2-.1.52.52,0,0,0,.15-.07l.15,0a1.55,1.55,0,0,0,.43-.15.76.76,0,0,1,.3-.1.37.37,0,0,0,.35-.18h0a.71.71,0,0,0,.5-.1.33.33,0,0,0,.4-.06.41.41,0,0,0,.29-.24.42.42,0,0,0,.17-.33.37.37,0,0,0-.19-.3.56.56,0,0,0-.32-.19c-.13-.11-.34-.08-.49-.1h0a.51.51,0,0,0-.3-.14,1,1,0,0,0-.37-.38,1.43,1.43,0,0,1-.26-.22.38.38,0,0,0-.43-.07l0,0a.3.3,0,0,0-.16,0h0a.36.36,0,0,0-.2-.33.58.58,0,0,0-.45-.13.63.63,0,0,0-.48.14.36.36,0,0,0-.25,0,.48.48,0,0,0-.52-.17.68.68,0,0,1-.13-.12.71.71,0,0,0-.36-.25.29.29,0,0,0-.18,0,.34.34,0,0,0-.42.07l-.14.07-.1-.08c-.11-.11-.23-.21-.36-.32a.26.26,0,0,0-.31,0l0,0a.83.83,0,0,0-.49-.33H201a.38.38,0,0,0-.41,0,.56.56,0,0,0-.49-.2L200,32.1a1.28,1.28,0,0,1-.31-.2.33.33,0,0,0-.33-.07l-.1-.08a1,1,0,0,0-.32-.21.31.31,0,0,0-.25,0l-.06-.07a.78.78,0,0,0-.44-.29.31.31,0,0,0-.19,0h0a.66.66,0,0,0-.32-.18.38.38,0,0,0-.09-.18.48.48,0,0,0-.22-.12.36.36,0,0,0-.11-.16.93.93,0,0,1-.23-.31l-.09-.15a.3.3,0,0,0-.25-.14l-.1-.06a.81.81,0,0,0-.28-.14.79.79,0,0,0-.55-.16.42.42,0,0,0-.22-.12.48.48,0,0,0-.62-.22.3.3,0,0,0-.34-.06l-.12-.07a.78.78,0,0,0-.47-.19.63.63,0,0,0-.32.1.83.83,0,0,1-.18-.19,1.61,1.61,0,0,0-.3-.28.35.35,0,0,0-.3,0,.68.68,0,0,1-.13-.12,1,1,0,0,0-.4-.29.32.32,0,0,0-.2-.29l-.07,0a.34.34,0,0,0-.16,0l0,0a.36.36,0,0,0-.28-.06s-.14-.13-.2-.2a1.16,1.16,0,0,0-.48-.42.27.27,0,0,0-.12,0c-.18,0-.34-.13-.52-.44a.33.33,0,0,0-.27-.15l-.08-.05a.71.71,0,0,0-.4-.17,4.37,4.37,0,0,0-1.46-.84l-.22-.08a1.94,1.94,0,0,1-.27-.25,1.2,1.2,0,0,0-.82-.5h0a.35.35,0,0,0-.28-.19.67.67,0,0,0-.24-.09s0,0,0-.07a.34.34,0,0,0-.1-.23,2.78,2.78,0,0,0-.39-.33l-.08,0a.5.5,0,0,0-.27,0h0a.56.56,0,0,0-.1-.15.68.68,0,0,0,.42-.12.53.53,0,0,0,.36-.35l.1,0a.39.39,0,0,0,.08-.1.65.65,0,0,0,.37.07.42.42,0,0,0,.16-.09.25.25,0,0,1,.12,0,1.87,1.87,0,0,1,.32,0A1.15,1.15,0,0,0,188,23a.19.19,0,0,0,.1,0,1.11,1.11,0,0,0,.58.11.7.7,0,0,0,.44-.12l.16-.06.3,0a.94.94,0,0,1,.62.05.32.32,0,0,0,.36,0,.43.43,0,0,1,.13.05.81.81,0,0,0,.37.11.74.74,0,0,0,.18,0,.66.66,0,0,1,.31,0,1.37,1.37,0,0,0,.49,0,.37.37,0,0,0,.3,0,.92.92,0,0,0,.78,0l.1-.05a.79.79,0,0,0,.63-.08l.11-.06a.36.36,0,0,0,.25,0,.47.47,0,0,0,.27-.24.32.32,0,0,0,.17-.06.33.33,0,0,0,.27-.15.33.33,0,0,0,.22-.3.42.42,0,0,0,0-.15.28.28,0,0,0,0-.2.33.33,0,0,0-.16-.19.93.93,0,0,0-.46,0,.54.54,0,0,0-.15-.34.27.27,0,0,0-.31-.07.59.59,0,0,1-.09-.11,1.14,1.14,0,0,0-.14-.16.23.23,0,0,0-.12-.08.69.69,0,0,0-.4,0l0,0a.32.32,0,0,0-.41-.21l-.1,0a.32.32,0,0,0-.45.11h0a1.92,1.92,0,0,0-.27-.11.32.32,0,0,0-.3,0,.53.53,0,0,0-.14.12.53.53,0,0,0-.49.1,1.88,1.88,0,0,1-.37-.16.55.55,0,0,0-.17-.05l-.13-.08a.72.72,0,0,0-.41,0,.45.45,0,0,0-.34,0,.39.39,0,0,0-.38,0,.88.88,0,0,0-.3.1.37.37,0,0,0-.43-.13.25.25,0,0,0-.12,0h0a.37.37,0,0,0-.15,0,.2.2,0,0,0-.11,0,.29.29,0,0,0-.25.08l0,0-.19-.12a.33.33,0,0,0-.32,0l-.14.09a.45.45,0,0,0-.22,0,.47.47,0,0,0-.58.14.59.59,0,0,0-.29,0,.4.4,0,0,0-.16-.13.34.34,0,0,0-.28,0l-.08,0s0,0,0-.12a.65.65,0,0,0-.3-.52.47.47,0,0,0,.06-.15,1.54,1.54,0,0,0-.44-1.26l-.11-.09a.51.51,0,0,0-.52-.18l-.06,0a.32.32,0,0,0-.42-.11h0a1.29,1.29,0,0,1-.15-.2.33.33,0,0,0-.43-.1,1.44,1.44,0,0,1-.49.2.58.58,0,0,0-.37,0,.23.23,0,0,0-.12-.06.31.31,0,0,0-.28.05l-.1.08a3.75,3.75,0,0,0-.48.39.32.32,0,0,0-.09.23v.09a.89.89,0,0,0,.14.62,2.6,2.6,0,0,0,.34,1.22s0,.06,0,.09a.59.59,0,0,0-.44.33s-.06.1-.12.12a.76.76,0,0,1-.45,0,2,2,0,0,0-.43,0,.57.57,0,0,0-.45-.18l-.12,0a.66.66,0,0,1-.25,0,1.48,1.48,0,0,0-.42,0,.65.65,0,0,0-.39,0,.32.32,0,0,0-.27,0,.58.58,0,0,0-.19,0,.66.66,0,0,0-.32-.07h-.11l-.07,0a.38.38,0,0,0-.49-.1.76.76,0,0,0-.59,0,.72.72,0,0,0-.41,0,.4.4,0,0,0-.19,0,.24.24,0,0,0-.13.07.71.71,0,0,0-.42-.07,1.78,1.78,0,0,0-1.14,0c-.16,0-.31.07-.44.08a1.17,1.17,0,0,0-.64,0h0a1,1,0,0,0-.92.52,1,1,0,0,1-.18.22.37.37,0,0,0-.1.23,1.55,1.55,0,0,1-.08.37c0,.14-.08.28-.11.42a.33.33,0,0,0,.09.28s0,.09.06.2a1.14,1.14,0,0,0,.14.47.2.2,0,0,0,.08.08,1,1,0,0,0,.18.16.33.33,0,0,0,.17.18.76.76,0,0,0,.36.11.39.39,0,0,0,.19.31.33.33,0,0,0,.41,0c.1-.11.15-.07.24,0a.36.36,0,0,0,.27,0l.1-.05a1.22,1.22,0,0,0,.43-.28c.09,0,.16-.06.23-.08l.07,0h0a.33.33,0,0,0,.28.06.81.81,0,0,0,.37-.23,1.06,1.06,0,0,0,.44,0,.51.51,0,0,1,.18,0,.33.33,0,0,0,.17,0l.22,0a1.31,1.31,0,0,0,.71-.21l.1,0a1.25,1.25,0,0,0,.39,0l.8-.15.12-.05a.83.83,0,0,1,.51,0,1.2,1.2,0,0,0,1-.18.68.68,0,0,0,.32,0,.48.48,0,0,0,.42,0,.47.47,0,0,0,.28,0,.61.61,0,0,0,.33.29h0a.67.67,0,0,0,0,.24.72.72,0,0,0,0,.52v0a.65.65,0,0,0-.11.68s0,.07,0,.06a.39.39,0,0,0-.06.26.52.52,0,0,1,0,.21.85.85,0,0,0,0,.42c-.05.52-.11.86-.4,1a.59.59,0,0,0-.28.81l-.09.08h0a.24.24,0,0,0-.09.06.63.63,0,0,0-.27.41h0a.82.82,0,0,0-.53.08l-.06,0a.71.71,0,0,0-.44-.13h-.3a.33.33,0,0,0-.14,0,.59.59,0,0,0-.4.39.41.41,0,0,1,0,.09.31.31,0,0,0-.09.3.88.88,0,0,1,0,.17c0,.08,0,.17,0,.27l-.09,0a1.23,1.23,0,0,0-.33,0,.71.71,0,0,0-.69.13l-.1.07a.31.31,0,0,0-.29.18l-.06.11a1.06,1.06,0,0,0-.22.59l-.07,0a1.88,1.88,0,0,0-.38.18,1.13,1.13,0,0,0-.6.29.34.34,0,0,0-.37,0,1.66,1.66,0,0,0-1.24.58l-.07-.05a.32.32,0,0,0-.37,0l-.26.16a.43.43,0,0,0-.24,0l-.13,0a.34.34,0,0,0-.27.09s0,0-.09,0h-.12a1.35,1.35,0,0,0-.37.05h-.1a.89.89,0,0,0-.62.13,5.75,5.75,0,0,0-1.17.07.21.21,0,0,0-.13,0,.32.32,0,0,0-.38.2h-.13a.5.5,0,0,0-.31-.1.34.34,0,0,0-.21.08.64.64,0,0,0-.44,0,.32.32,0,0,0-.3,0H168a.29.29,0,0,0-.12-.07.33.33,0,0,0-.25-.11,1.91,1.91,0,0,0-.59.06h0a.31.31,0,0,0-.25,0,.29.29,0,0,0-.17.17h0a.27.27,0,0,0-.06-.12.27.27,0,0,0-.25-.09.37.37,0,0,0-.14-.07A.57.57,0,0,0,166,32a.4.4,0,0,0-.21-.09.09.09,0,0,0-.07,0,.4.4,0,0,0-.15,0,.54.54,0,0,0-.42.26.3.3,0,0,0-.14.26.24.24,0,0,0,.05.18.37.37,0,0,0,.17.48l0,.1a.22.22,0,0,0,0,.14.29.29,0,0,0,.18.27.31.31,0,0,1,0,.11.92.92,0,0,0,.13.46,1,1,0,0,0,0,.24l0,.05a.1.1,0,0,0,0,0,4.74,4.74,0,0,0-.58.47.38.38,0,0,0,0,.45.43.43,0,0,0,0,.3.42.42,0,0,0,.3.23.26.26,0,0,0,.21,0,.66.66,0,0,0,.46.21.31.31,0,0,0,.13,0,.5.5,0,0,0,.6.17.51.51,0,0,0,.22,0,.26.26,0,0,0,.37,0l.14-.06.14,0h0a.24.24,0,0,0,.27,0,.36.36,0,0,0,.47,0h.34a1.18,1.18,0,0,0,.78-.13l.26-.08.1,0a.87.87,0,0,0,1-.23l.16-.12c.24,0,.74,0,1.25-.06.35,0,.69-.05.88-.05a1,1,0,0,0,.45.05h.15a.3.3,0,0,0,.16,0,3.37,3.37,0,0,0,1.88-.89,1.94,1.94,0,0,0,.38-.2c.19-.11.36-.21.5-.16h.11a.3.3,0,0,0,.3-.19l0,0,.2-.15,0,0,.08,0c.21.1.54.17.69,0h0a.42.42,0,0,0,.14-.09.32.32,0,0,0,.27,0,.44.44,0,0,0,.3-.26.36.36,0,0,0,0-.14.7.7,0,0,0,.23-.13c.06,0,.07,0,.08,0l.11,0a.42.42,0,0,0,.29-.48h0l.06,0,.11,0a.27.27,0,0,0,.25-.09l.05-.06a.33.33,0,0,0,.22,0l.07,0a.46.46,0,0,0,.29-.15.81.81,0,0,0,.27-.19.75.75,0,0,1,.09-.09.28.28,0,0,0,.15-.08.39.39,0,0,0,.1-.16.3.3,0,0,0,.13-.18c.05-.16.17-.25.37-.4l.16-.12a.24.24,0,0,0,.12-.21.51.51,0,0,0,.08-.24.34.34,0,0,0,.11-.17.28.28,0,0,0,0-.1l.15-.14a.66.66,0,0,0,.21-.43l.09-.17c0-.08.06-.13.11-.16a.3.3,0,0,0,.12-.21.39.39,0,0,0,0-.19h0a.65.65,0,0,0,.06-.37.77.77,0,0,0,.28-.63,1.77,1.77,0,0,0,.09-.32.59.59,0,0,1,.12-.3.37.37,0,0,0,.07-.2v-.13c0-.19,0-.27.05-.33a.45.45,0,0,0,.14-.33.57.57,0,0,0-.16-.38.32.32,0,0,0,0-.33.78.78,0,0,0,0-.19h0a.54.54,0,0,0,.14-.59l0,0h0c.05,0,.09,0,.24.1a.77.77,0,0,0,.46.33c.11,0,.13,0,.15.07a1.4,1.4,0,0,0,.59.54.93.93,0,0,1,.33.24.61.61,0,0,0,.59.41l.12,0a1.82,1.82,0,0,0,.88,1.11.68.68,0,0,0,.43.17.66.66,0,0,0,.45.42l.07,0a1.41,1.41,0,0,0,.64.62,1.15,1.15,0,0,1,.43.37.32.32,0,0,0,.35.18.45.45,0,0,0,.22.14l0,.05a.84.84,0,0,0,.39.38l.08,0a.6.6,0,0,0,.18.09.42.42,0,0,0,.08.12l0,0a1,1,0,0,0,.25.27s.08,0,.08,0a.32.32,0,0,0,.33.29.53.53,0,0,0,.46.23l.2.18.27.24a1.27,1.27,0,0,0,.54.67l.08,0a1,1,0,0,1,.42.29.48.48,0,0,0,.37.13l.06,0c.05,0,.06,0,.07.07a.32.32,0,0,0,.26.15.71.71,0,0,0,.26.1l.09,0a.31.31,0,0,0,.09.11.29.29,0,0,0,.27.06l.07.08a.64.64,0,0,0,.49.29l.05.06a.25.25,0,0,0,0,.08.41.41,0,0,0,.34.35.32.32,0,0,0,.12.11.38.38,0,0,0,.16,0l.13.1a.27.27,0,0,0,.09.12.54.54,0,0,0,.38.54c.08,0,.09,0,.17,0l.08.07a.91.91,0,0,0,.24.2.45.45,0,0,0,.28.09.71.71,0,0,0,.44.48l.12.07a.29.29,0,0,0,.17.14.42.42,0,0,0,.16.13.24.24,0,0,0,.22,0l.12.08a1.27,1.27,0,0,0,.31.19l0,0a.37.37,0,0,0,.28.11l.08,0a.44.44,0,0,1,.18.19.33.33,0,0,0,.16.17.41.41,0,0,0,.39,0l.08.09a.34.34,0,0,0,.22.2.47.47,0,0,0,.19.18s0,0,.1,0a.52.52,0,0,0,.35.08.4.4,0,0,0,.21,0,.22.22,0,0,0,.11,0h.19l.21.06.11,0a.18.18,0,0,0,.1,0,.33.33,0,0,0,.19-.06h0a.52.52,0,0,0,.28,0Z"/><path class="cls-1" d="M125.41,41.57a.52.52,0,0,0-.35-.16.4.4,0,0,0-.35.22.29.29,0,0,0-.24,0,.87.87,0,0,0-.6.07l-.12,0a.33.33,0,0,0-.25.11s-.09.08-.26.08l-.29,0a1.66,1.66,0,0,0-.75,0,6.84,6.84,0,0,1-2.27-.26,3.14,3.14,0,0,0-1.59-.12,2.43,2.43,0,0,1-1.41-.14.31.31,0,0,0-.31,0,1.87,1.87,0,0,1-.63,0c-.2,0-.43,0-.54.12a.43.43,0,0,1-.45.11.86.86,0,0,0-.66-.1.65.65,0,0,1-.22,0,.31.31,0,0,0-.23-.12s-.09-.05-.13-.08a.76.76,0,0,0-.82-.13,1.86,1.86,0,0,0-.62.09c-.38.08-.69.13-.88-.11l-.07-.07a1.25,1.25,0,0,0-1.07,0,1.18,1.18,0,0,1-.42.1,1.78,1.78,0,0,0-1-.14.66.66,0,0,1-.53-.06.34.34,0,0,0-.21-.08,4.78,4.78,0,0,1-.75-.08,4.44,4.44,0,0,0-1-.07,3,3,0,0,0-1-.22h-.23a1.13,1.13,0,0,1-.83-.46.32.32,0,0,0-.26-.1l-.49.06a7.14,7.14,0,0,1-.93.09,1.55,1.55,0,0,1-.9-.23.35.35,0,0,0-.24-.06,2.49,2.49,0,0,1-1.21-.13,1.29,1.29,0,0,0-.48,0,.51.51,0,0,1-.32,0,.35.35,0,0,0-.19-.06,2,2,0,0,1-.54-.1,1.68,1.68,0,0,0-1.06,0,.77.77,0,0,1-.5-.07,1.37,1.37,0,0,0-.9-.08,1.55,1.55,0,0,0-1.39,0,1.44,1.44,0,0,1-.51.15.43.43,0,0,1-.31-.15.32.32,0,0,0-.31-.08,2,2,0,0,1-.6,0,2.13,2.13,0,0,0-1,.07.78.78,0,0,0-.22,0,.33.33,0,0,0-.19,0c-.49,0-1,0-1.5,0a14.57,14.57,0,0,0-1.87,0,.94.94,0,0,1,0-.46,1.51,1.51,0,0,0,0-.22l.22-.58c.23-.62.47-1.27.64-1.92a.35.35,0,0,0-.06-.28,1.68,1.68,0,0,1-.26-.76,1.67,1.67,0,0,0-.63-1.22.52.52,0,0,1,0-.34c.09-.11.45-.12.74-.13a1.85,1.85,0,0,0,1.25-.32.84.84,0,0,1,.32,0,.92.92,0,0,0,.94-.26,1.6,1.6,0,0,0,.29-1.46.74.74,0,0,0-.72-.58,1.76,1.76,0,0,0-.67.18,1.36,1.36,0,0,1-.44.13h0a.26.26,0,0,0-.15,0,1.89,1.89,0,0,0-.51.21,1,1,0,0,1-.41.14h0a.33.33,0,0,0-.28.08,2,2,0,0,1-1.26.36,6,6,0,0,0-1,.14,2.64,2.64,0,0,1-.95,0L85,32a1.51,1.51,0,0,0-1.25.52.32.32,0,0,0-.07.25,1.84,1.84,0,0,0,.73,1,2.39,2.39,0,0,1,.32.31.32.32,0,0,0,.3.12,1.59,1.59,0,0,1,.43,0,2.73,2.73,0,0,0,.41,0,1.07,1.07,0,0,0,.82-.32s0,.09.08.27a1.07,1.07,0,0,0,.38.76,1.19,1.19,0,0,1,0,.69c0,.13,0,.26,0,.39a2.79,2.79,0,0,0-.31,1.49,2.37,2.37,0,0,1-.19,1.17l-.07.1c-.37.5-.83,1.12-1.53,1.12H84.9a.36.36,0,0,0-.33.21c0,.1-.06.14-.36.14h-.13a1.41,1.41,0,0,0-.53.07h0a1.09,1.09,0,0,0-.9.56c-.16.21-.24.29-.37.29a.32.32,0,0,0-.27.16,1.66,1.66,0,0,0-.06,1.25,2.23,2.23,0,0,1,.08.46.31.31,0,0,0,.16.28l.18.1A2.43,2.43,0,0,0,83.6,44a1.38,1.38,0,0,0,.56-.12l.07,0a6.78,6.78,0,0,1,.76-.46,3.59,3.59,0,0,0,.73-.46l.48-.27a6.84,6.84,0,0,1,1.74-.8A11.21,11.21,0,0,1,91.63,41a6.1,6.1,0,0,1,1.36.15.32.32,0,0,0,.28-.07c.15-.12.34-.08.59,0a1.77,1.77,0,0,0,.76.06,1,1,0,0,0,.78,0,.45.45,0,0,1,.39,0,.34.34,0,0,0,.39-.06c.08-.08.12-.08.13-.08a.87.87,0,0,1,.23.06,1.35,1.35,0,0,0,.61.12,1.69,1.69,0,0,0,.73.15l.41,0a2.65,2.65,0,0,1,.8,0,3.76,3.76,0,0,0,2,.45l.68,0a7,7,0,0,1,1.08.12l.47.08a3.11,3.11,0,0,0,1.64.56l.4.07a1,1,0,0,0,.84.1.73.73,0,0,1,.39,0,7.23,7.23,0,0,0,2.25.94c.4.12.78.23,1.13.37l.12,0a2.9,2.9,0,0,1,1.37.46,3.31,3.31,0,0,0,1.62.53h0a5.44,5.44,0,0,1,.69.41,3.93,3.93,0,0,0,1.5.7,2.82,2.82,0,0,0,1.74.47l.64,0a7,7,0,0,1,.91,0,.3.3,0,0,0,.2-.06l.1-.06a2.75,2.75,0,0,0,.57,0,4.45,4.45,0,0,0,2.32-.83c.27-.17.55-.33.83-.47a3.15,3.15,0,0,0,1.26-1,4.62,4.62,0,0,1,.61-.64,1.91,1.91,0,0,0,1-1.16l.09-.19a.39.39,0,0,0,0-.14A.47.47,0,0,0,125.41,41.57Z"/><path class="cls-1" d="M89.83,26.06a2.07,2.07,0,0,0-.89-.25,1.88,1.88,0,0,1-.66-.18.34.34,0,0,0-.37,0c-.36.3-.81.21-1.34.06a2.77,2.77,0,0,0-1.39-.14.6.6,0,0,0-.57.66.38.38,0,0,1,0,.17,1.08,1.08,0,0,0,.32,1.15,1.23,1.23,0,0,1,.23.35.33.33,0,0,0,.11.15,2.12,2.12,0,0,0,1.28.47,1.18,1.18,0,0,0,.39-.06,3.77,3.77,0,0,0,1.88-1.13c.21-.19.42-.38.59-.51h.09a.59.59,0,0,0,.47-.23.41.41,0,0,0,0-.37A.35.35,0,0,0,89.83,26.06Z"/><path class="cls-1" d="M84.08,21.86c.57,0,1.2,0,1.83,0s1.18,0,1.73,0a2.18,2.18,0,0,0,.63.09,4.9,4.9,0,0,0,.76-.08l.53-.08a.44.44,0,0,0,.16-.06.83.83,0,0,1,.26,0c.28,0,.93-.08.93-.79a.31.31,0,0,0-.07-.2,1.58,1.58,0,0,0-1.31-.53c-.2,0-.41,0-.61,0a4.14,4.14,0,0,1-.69,0,5.12,5.12,0,0,1-.54-.1A4.23,4.23,0,0,0,86.51,20c-.23,0-.46-.05-.69-.07a2.24,2.24,0,0,1-1.19-.29.32.32,0,0,0-.28,0,1.11,1.11,0,0,0-.51.44,1.55,1.55,0,0,1-.15.18,1.21,1.21,0,0,0,.15,1.5A.32.32,0,0,0,84.08,21.86Z"/><path class="cls-1" d="M105.44,40.39a.81.81,0,0,0,.27,0c.61,0,1.49-2.16,1.5-2.18a1.45,1.45,0,0,0,.07-.52c0-.47.09-1.34.46-1.34l.86.17a7.2,7.2,0,0,0,1,.19,3.53,3.53,0,0,0,.47-.07l.37,0,.89.09,1,.09h.5a4.07,4.07,0,0,0,2.66-.79.36.36,0,0,0,.13-.24.88.88,0,0,0-.2-.69,1.24,1.24,0,0,0-1-.3H114a1.19,1.19,0,0,1-.36-.2.82.82,0,0,0-.45-.2l-.71.09-.61.09a10,10,0,0,1-1.37-.46c-.37-.13-.37-.13-.44-.13a2.2,2.2,0,0,0-.69.18,2.58,2.58,0,0,1-.56.17c-.88,0-1.38-.33-1.38-2a1.17,1.17,0,0,1,.18-.58h0a3.38,3.38,0,0,0,1,.28,8.07,8.07,0,0,0,.92-.15l.79-.15a3.14,3.14,0,0,1,.38.11,2.32,2.32,0,0,0,.54.13,5,5,0,0,0,3.95-1.75.32.32,0,0,0-.23-.54h-1.62a.65.65,0,0,0-.37.13l0,0-.49-.2a2.31,2.31,0,0,0-.75-.26,1.59,1.59,0,0,0-.53.17l-.29.13-.23-.05a1.38,1.38,0,0,0-.79,0l-.28.06c-1.74,0-2.58-.57-2.58-1.73a.34.34,0,0,1,0-.11l.66.12a6.42,6.42,0,0,0,.87.16,3.56,3.56,0,0,0,1-.24l.37-.12.79.12c.62.09.81.12.89.12h1.1A4.3,4.3,0,0,0,115,26a.32.32,0,0,0,0-.28.33.33,0,0,0-.26-.13h-.62a.3.3,0,0,0-.18.06,1.9,1.9,0,0,1-.45.23h-1.21a1.57,1.57,0,0,0-.45.11l-.23.07a.8.8,0,0,1-.2-.07,1.14,1.14,0,0,0-.41-.11h-1l-.17,0a1.05,1.05,0,0,0-.35-.08,5,5,0,0,0-.62.1c-.23,0-.45.08-.52.08a.87.87,0,0,1-.23-.05,2.22,2.22,0,0,0-.38-.07c-.05,0-.06,0-.25.07a4,4,0,0,0,0-1c-.13-.87-.3-2.11-1.72-1.88a.8.8,0,0,0-.48.38,5.14,5.14,0,0,0-.88,2.76l-5,.21c-.12,0-.9-.22-1.23-.31a2,2,0,0,0-.45-.11C97,25.89,95,27.13,95,28.38c0,.57.66.77,1.22.77a6.59,6.59,0,0,0,2-.48,7.94,7.94,0,0,1,2.62-.59l.71,0,.33,0,.33.05a2.7,2.7,0,0,0,.44.07c.08,0,.29,0,1-.15l.9-.15c.23.08.59,1.2.59,1.59a2.12,2.12,0,0,1-1.15.74h-1.31a7,7,0,0,0-1.81.21,2.35,2.35,0,0,1-.53.09l-1.07-.18c-.9-.15-1.1-.18-1.17-.18-.38,0-2.26.67-2.26,2a1.1,1.1,0,0,0,.64,1,2.26,2.26,0,0,0,1,.21,1.17,1.17,0,0,0,.42-.06L98.7,33a35.38,35.38,0,0,1,4.66-1h1.2a.42.42,0,0,1,.41.39,1,1,0,0,1,0,.2,1.51,1.51,0,0,0-.06.36v1.32a5.4,5.4,0,0,1-1.73.36h-3.6a4.83,4.83,0,0,1-1.08-.31,3,3,0,0,0-.81-.23,2.36,2.36,0,0,0-2.18,2.62c.07.37.29.76.67.76h1.53a27.55,27.55,0,0,0,3.84-1.15h2.94a7.44,7.44,0,0,1,.64,1.8v1.87A.39.39,0,0,0,105.44,40.39Z"/><path class="cls-1" d="M93.23,25.78a.85.85,0,0,0,.23,0,1.13,1.13,0,0,0,.61-.24,1.77,1.77,0,0,0,1-.28,1.18,1.18,0,0,1,.9-.19.34.34,0,0,0,.24,0,11.28,11.28,0,0,1,1.38-.6l.61-.25a1,1,0,0,0,.47-.08c.2-.06.52-.17,1.13-.32a.3.3,0,0,0,.23-.19,1.59,1.59,0,0,1,1.16-.85.38.38,0,0,0,.21-.12,3.6,3.6,0,0,1,1.62-1,4.56,4.56,0,0,0,1-.51,2.46,2.46,0,0,1,1.29-.53h0a2.78,2.78,0,0,0,1.34.45,2.53,2.53,0,0,1,1.07.33.27.27,0,0,0,.15.05,4.4,4.4,0,0,1,1.22.32,4.66,4.66,0,0,0,1.47.36,4.17,4.17,0,0,0,1.39.44,2.43,2.43,0,0,1,1.44.59.33.33,0,0,0,.23.1,2,2,0,0,1,.48.1,1.33,1.33,0,0,0,1.27-.1l.5,0h.69a4.58,4.58,0,0,0,1.47-.2.31.31,0,0,0,.17-.13l.08-.12a1.48,1.48,0,0,0,.33-.88.28.28,0,0,0-.06-.18,2.78,2.78,0,0,1-.23-.49c-.16-.42-.39-1-1.06-1h0a23.26,23.26,0,0,1-3.89-.74,3.8,3.8,0,0,0-1.63-.1,3.16,3.16,0,0,1-1.46-.12.28.28,0,0,0-.2,0,2.22,2.22,0,0,1-1.56,0l-.1-.07c-.38-.3-.39-.38-.32-.48a.58.58,0,0,0,0-.14c.07-.61.49-.81,1.18-1.08a4.65,4.65,0,0,0,.87-.42.34.34,0,0,0,.14-.31.79.79,0,0,1,.07-.34.77.77,0,0,0-.31-1.1.33.33,0,0,0-.2,0,1.87,1.87,0,0,1-.74-.13,2.71,2.71,0,0,0-.72-.17,2.1,2.1,0,0,0-1.12-.34c-.55-.06-.87-.11-1-.52A.33.33,0,0,0,106,14a2.14,2.14,0,0,1-.93-1.1.35.35,0,0,0-.19-.17.31.31,0,0,0-.25,0l-.13.08,0,0a.31.31,0,0,0-.19-.06,1.61,1.61,0,0,0-1.41,1.07c-.11.22-.23.24-.51.26a1.26,1.26,0,0,0-.89.39,1.77,1.77,0,0,1-1.16.6,3.3,3.3,0,0,0-1.11.41.81.81,0,0,1-.53,0,1.84,1.84,0,0,0-.81,0,1.18,1.18,0,0,1-.2-.23,2.3,2.3,0,0,0-.17-.2,1.09,1.09,0,0,0-.72-.27,2.16,2.16,0,0,0-1,.3,3.63,3.63,0,0,1-.43.18.83.83,0,0,0-.22,0c-.44,0-.64.38-.78.64a1.58,1.58,0,0,1-.21.32.94.94,0,0,0-.16.9.79.79,0,0,0,.71.29h.31c.3,0,.35.05.36.06a.3.3,0,0,0,.2.14,2.34,2.34,0,0,0,1.14-.14,1.55,1.55,0,0,1,.88-.1.5.5,0,0,0,.18,0c.15,0,.21.07.35.36a1.21,1.21,0,0,0,.57.64,1.68,1.68,0,0,0,1,.52c.36.1.54.17.63.44a.32.32,0,0,0,.24.21,2.76,2.76,0,0,0,.51.05,1.81,1.81,0,0,1,.61.1.47.47,0,0,1,.31.23A2.86,2.86,0,0,1,100.4,21a5.67,5.67,0,0,0-1,.48,10.26,10.26,0,0,0-2.58,1,8.62,8.62,0,0,1-2.72,1,.32.32,0,0,0-.25.2,1.41,1.41,0,0,1-.37.36,1.3,1.3,0,0,0-.64.85.92.92,0,0,0,.3.71A.36.36,0,0,0,93.23,25.78Zm8.49-7.86a2.75,2.75,0,0,1-1.25-.66c0-.06,0-.25.06-.36v0a3.83,3.83,0,0,1,1.2-.45,7,7,0,0,0,1-.33,2.15,2.15,0,0,0,.84-.29,1.52,1.52,0,0,1,.58-.21h.1a3.08,3.08,0,0,1,.58.46,2.17,2.17,0,0,0,1.15.69v.09a1.21,1.21,0,0,0,0,.19,2.89,2.89,0,0,1-1.22,1.28l-.15.1a2.36,2.36,0,0,1-1,0,5.16,5.16,0,0,0-.79-.09h-.09l0,0A1,1,0,0,0,101.72,17.92Z"/><path class="cls-1" d="M222.38,34.54a3.4,3.4,0,0,0-.78,0,3.4,3.4,0,0,1-.64,0,.34.34,0,0,0-.24.07,1.18,1.18,0,0,1-.89.09.31.31,0,0,0-.28,0,.56.56,0,0,1-.3.09h-.07a1,1,0,0,0-.69-.15h-.2a.33.33,0,0,0-.33-.08.61.61,0,0,0-.42.37.29.29,0,0,0,0,.09.3.3,0,0,0-.21.07.69.69,0,0,0-.57.06l-.08.09s0,0-.13,0h-.21a.88.88,0,0,0-.58.18,2,2,0,0,0-.71.09.38.38,0,0,0-.15.09,1.41,1.41,0,0,1-.18.14c-.2.15-.58.43-.51.86a1.25,1.25,0,0,0-.35.84.78.78,0,0,1-.12.45.37.37,0,0,0-.07.2,1.54,1.54,0,0,0,.59,1.11.4.4,0,0,0,.37.1.71.71,0,0,0,.53-.06.26.26,0,0,0,.09-.09,2.12,2.12,0,0,1,.83-.68,3.81,3.81,0,0,0,.6-.36,1.63,1.63,0,0,0,.87-.43,1,1,0,0,1,.66-.3h0a.29.29,0,0,0,.25-.1.84.84,0,0,1,.27-.09,1.47,1.47,0,0,0,.38-.11,1.72,1.72,0,0,0,.79-.27,2.48,2.48,0,0,0,1.18-.07,2.29,2.29,0,0,1,.61-.1h0a.61.61,0,0,0,.77,0,1.37,1.37,0,0,1,.79.07A.59.59,0,0,0,224,37a.24.24,0,0,1,.13,0c.13.15.36.12.58.16a1.47,1.47,0,0,0,.89,0,.3.3,0,0,0,.17-.21,1.58,1.58,0,0,1,.59-.69H227a5.59,5.59,0,0,1,.73.73.65.65,0,0,0,.08.44s0,0,0,.07a.42.42,0,0,0,0,.1,7.33,7.33,0,0,0-.07,1.66s-.06,0-.09,0a1.15,1.15,0,0,0-.19.14.46.46,0,0,0-.09.15,1.92,1.92,0,0,0,0,.58c0,.21,0,.32,0,.39a.73.73,0,0,0-.32.62s0,.09,0,.09h0a1.63,1.63,0,0,0-.5.64c-.14.27-.2.37-.37.4a.33.33,0,0,0-.24.19,1.37,1.37,0,0,1-.44.5,1.55,1.55,0,0,0-.64.85l-.15.1a.87.87,0,0,0-.45.5c0,.06,0,.12-.29.12a.31.31,0,0,0-.3.22l-.16.07h0a.64.64,0,0,0-.45.26.31.31,0,0,0-.13.06,1.25,1.25,0,0,0-.23.23s-.08.1-.06.1a.37.37,0,0,0-.25.06.42.42,0,0,1-.15.07,1,1,0,0,0-.37.22,2.76,2.76,0,0,0-.93.33l-.08,0a.68.68,0,0,0-.2.18h-.1a.81.81,0,0,0-.53.09.53.53,0,0,1-.28,0h-.08a.76.76,0,0,0-.6.23,1,1,0,0,0-.26,0s-.05,0,0,0a.45.45,0,0,0-.28,0,.39.39,0,0,0-.25.17H218a1.17,1.17,0,0,0-.46,0A1,1,0,0,0,217,47a.38.38,0,0,1-.19.06.28.28,0,0,0-.18,0,2,2,0,0,1-.36,0,2,2,0,0,0-.65.11.78.78,0,0,0-.44.06.32.32,0,0,0-.3,0,.51.51,0,0,1-.16,0h-.3a1.1,1.1,0,0,0-.24,0,1.16,1.16,0,0,0-.49,0,.45.45,0,0,1-.24,0,.37.37,0,0,0-.25,0h-.31a4.87,4.87,0,0,0-.55,0,2.62,2.62,0,0,0-.57,0l-.23,0h-.15a1.14,1.14,0,0,0-.71,0,.67.67,0,0,1-.27,0,.26.26,0,0,0-.21,0,1.73,1.73,0,0,1-.41,0,2,2,0,0,0-.54,0c-.36-.09-.72,0-1-.08a1.26,1.26,0,0,0-.79-.13.69.69,0,0,1-.51-.1c-.15-.14-.38-.07-.54,0a.8.8,0,0,1-.22-.2l-.23-.22a.53.53,0,0,0-.33-.06.24.24,0,0,1-.19-.08.57.57,0,0,0-.29-.44.25.25,0,0,0-.13-.14,4.58,4.58,0,0,1-1.28-1.2l-.13-.1-.25-.09a.32.32,0,0,0-.35.07l-.15.12a.84.84,0,0,0-.32.3A1.69,1.69,0,0,0,202,46a1.73,1.73,0,0,1-.11.46.31.31,0,0,0,0,.28.48.48,0,0,0,0,.35.63.63,0,0,0,.22.62s.06.07.07,0a.35.35,0,0,0,.07.26.32.32,0,0,0,.24.11.53.53,0,0,1,.14.1.91.91,0,0,0,.59.24,3.1,3.1,0,0,0,.89.6,3,3,0,0,1,.43.24.36.36,0,0,0,.35,0v0a.66.66,0,0,0,.53.12,2.91,2.91,0,0,0,.55.1,1.17,1.17,0,0,1,.59.15.34.34,0,0,0,.22.07,4.35,4.35,0,0,1,.51,0,3.93,3.93,0,0,0,1.22-.15,2.52,2.52,0,0,0,1,.15h.44a.24.24,0,0,0,.15-.06v-.32h0l.08.33a.68.68,0,0,0,.51-.1,2.33,2.33,0,0,0,.37,0c.23,0,.44,0,.52,0a.32.32,0,0,0,.27.09,1.4,1.4,0,0,0,.34-.08c.22-.06.39-.11.51,0a.34.34,0,0,0,.29,0,4.15,4.15,0,0,1,1.14-.13,4.92,4.92,0,0,0,1.2-.11l.21-.07a.18.18,0,0,1,.11,0,3.22,3.22,0,0,0,1.32,0l.2,0c.13,0,.24-.06.36-.09a.73.73,0,0,1,.25-.07s0,0,.08,0a.33.33,0,0,0,.33,0,3.36,3.36,0,0,1,1.15-.17,7,7,0,0,0,.79-.06.36.36,0,0,0,.17-.07h0a1.33,1.33,0,0,0,.53-.14.8.8,0,0,1,.33-.08.3.3,0,0,0,.31-.15c.13-.2.39-.29.94-.3a1,1,0,0,0,.6-.12h0a.78.78,0,0,0,.45-.17l.09-.06a.32.32,0,0,0,.27,0,3,3,0,0,1,.6-.24,4.76,4.76,0,0,0,.71-.28,2.5,2.5,0,0,1,.48-.18,2.47,2.47,0,0,0,1.08-.57,4.27,4.27,0,0,0,1.76-1.39,9,9,0,0,1,.74-.77.32.32,0,0,0,.11-.24.45.45,0,0,1,.21-.45.32.32,0,0,0,.18-.29,1.15,1.15,0,0,1,.14-.42,1.51,1.51,0,0,0,.21-.65l0,0a1.08,1.08,0,0,0,.37-1,1.28,1.28,0,0,1,.1-.34,1.08,1.08,0,0,0,0-1.07s0,.08,0,.06a.33.33,0,0,0,.15-.27,2.61,2.61,0,0,1,.16-1.14.32.32,0,0,0,0-.14v-.15a1.4,1.4,0,0,0-.21-1,.35.35,0,0,1,.06-.09.77.77,0,0,0,.15-.55l.15,0a1,1,0,0,0,.51-.17,6.23,6.23,0,0,1,1.14,0l.6,0a1.33,1.33,0,0,0,1.14.06.71.71,0,0,1,.26.12,1,1,0,0,0,.76.18,4.27,4.27,0,0,0,1.73.08.35.35,0,0,0,.25-.15.33.33,0,0,0,.22,0,.56.56,0,0,0,.32-.59.7.7,0,0,0-.73-.59,1.14,1.14,0,0,0-.6-.13h-.33a.5.5,0,0,0-.43-.25.73.73,0,0,0-.36.11l-.06,0a4.38,4.38,0,0,0-1.36-.46l-.17,0c-.07,0-.11,0-.18,0a.67.67,0,0,0-.48-.06h-.39a2.18,2.18,0,0,1-.38,0,.29.29,0,0,0-.16,0,1.28,1.28,0,0,1-.62-.06,2.34,2.34,0,0,0-.81-.11l-.07-.06a3.9,3.9,0,0,1-.55-.51.92.92,0,0,0,0-.16.93.93,0,0,1,0-.29.28.28,0,0,0,0-.18c-.08-.22,0-.28.28-.49a1.58,1.58,0,0,0,.54-.55.32.32,0,0,0,0-.14c0-.25.16-.4.45-.64a2.31,2.31,0,0,0,.6-.7l0-.08a.72.72,0,0,1,.22-.44l.09-.09a.63.63,0,0,0-.2-.8l-.09-.1a.45.45,0,0,0-.36-.18c-.21,0-.35-.14-.59-.4-.1-.1-.19-.21-.31-.31a.24.24,0,0,0-.11-.06.47.47,0,0,0-.4,0,.31.31,0,0,0-.28,0,.38.38,0,0,1-.12-.13,1.07,1.07,0,0,0-.24-.23.58.58,0,0,0-.47-.05.36.36,0,0,0-.43.11c-.09.13-.26.06-.48,0A2.22,2.22,0,0,0,228,28a.44.44,0,0,0-.28-.15,1,1,0,0,0-.52-.21c-.18,0-.22,0-.3-.16a.42.42,0,0,0-.65-.11.28.28,0,0,0-.19,0,.57.57,0,0,1-.1-.11,1,1,0,0,0-.32-.3,10.3,10.3,0,0,1,2.33.06.37.37,0,0,0,.25-.06.76.76,0,0,1,.44-.09h.22a4.47,4.47,0,0,0,.52,0,.27.27,0,0,0,.14-.05l.07,0a.74.74,0,0,1,.21.15.34.34,0,0,0,.06.06.67.67,0,0,0,.3.08.73.73,0,0,0,.52-.27s0,0,0,0a1.87,1.87,0,0,1,.8,0,.76.76,0,0,0,.81,0,.58.58,0,0,1,.17-.06.78.78,0,0,0,.65.09l.11,0a.35.35,0,0,0,.17,0,5.29,5.29,0,0,1,.8.07,5.17,5.17,0,0,0,1.47,0l.07.05a.68.68,0,0,0,.59.2.77.77,0,0,0,.55-.09,1.55,1.55,0,0,0,1,.14l.26,0a1,1,0,0,0,.65-.05,6.25,6.25,0,0,1,1,.11l.6.08a1.48,1.48,0,0,0,.6,0l.24,0c.16,0,.19,0,.22.11a.26.26,0,0,0,.1.13c.17.12.18.23.21.5a2.69,2.69,0,0,0,.09.42,1.64,1.64,0,0,0,.17.26c.05.07.14.18.14.24a.34.34,0,0,0,0,.1.54.54,0,0,0,.1.16.18.18,0,0,0-.07.05l-.06.08a.46.46,0,0,0,.06.57.18.18,0,0,0,.09.06.88.88,0,0,0,.69,0,.31.31,0,0,0,.21-.3c0-.16.12-.27.32-.45l.18-.17a.31.31,0,0,0,.09-.18l.09-.06a.8.8,0,0,0,.39-.34.83.83,0,0,0,.36-.67c0-.21.05-.26.16-.31a.23.23,0,0,0,.12-.1c.11-.13.17-.34-.09-.64a.61.61,0,0,0,0-.14,1.14,1.14,0,0,1,0-.32,1.35,1.35,0,0,0-.15-.84.29.29,0,0,0-.15-.12,1.09,1.09,0,0,1-.33-.29,1.16,1.16,0,0,0-.83-.48,1.08,1.08,0,0,0-.42.11.87.87,0,0,1-.66.16.28.28,0,0,0-.22,0,.67.67,0,0,0-.38,0h-.48a.32.32,0,0,0-.23.09.9.9,0,0,0-.65-.15h-.25c-.13-.11-.33-.07-.49-.05a.71.71,0,0,1-.29,0,.33.33,0,0,0-.22,0,.47.47,0,0,1-.48-.05.4.4,0,0,0-.15-.1.63.63,0,0,0-.63.14h0l-.09,0a.37.37,0,0,0-.18,0l-.17,0a1.21,1.21,0,0,0-.36-.07.85.85,0,0,0-.69-.11.25.25,0,0,0-.15.06s0-.25-.06-.3a.59.59,0,0,1,.16-.15,1.32,1.32,0,0,0,.29-.29,1,1,0,0,0,.1-.68s0-.07,0-.11a1.55,1.55,0,0,0,.43-1.11v-.09a5.15,5.15,0,0,1,1.08-1.17c.19-.17.39-.34.56-.52a.35.35,0,0,0,.08-.13,1.86,1.86,0,0,0,.07-.34c0-.21,0-.27.13-.32a.32.32,0,0,0,.16-.28c0-.13.09-.25.24-.43a1.09,1.09,0,0,0,.35-.9.34.34,0,0,0,0-.18l.05-.07a.36.36,0,0,0,0-.23.48.48,0,0,0,.15-.48.49.49,0,0,0,0-.11.71.71,0,0,0-.28-.63v0c0-.05,0-.09,0-.14a.33.33,0,0,0-.1-.23l-.07-.1c-.06-.11-.18-.33-.42-.33h0a2.91,2.91,0,0,0-1.33,0,.34.34,0,0,0-.2.15,1.11,1.11,0,0,1-1,.44,1.15,1.15,0,0,0-.33,0H236c-.13,0-.16,0-.2-.1a.32.32,0,0,0-.19-.15,5.54,5.54,0,0,0-.56-.11,2.7,2.7,0,0,1-.48-.09.46.46,0,0,0-.39.1h-.09a.55.55,0,0,0-.35.12.91.91,0,0,0-.75.48,1.71,1.71,0,0,1-.11.14.33.33,0,0,0,0,.45.46.46,0,0,0,.27.13.83.83,0,0,0,.58.2h.46a.33.33,0,0,0,.24,0l.15.06a1,1,0,0,0,.47.13,1.07,1.07,0,0,1,.38.69,1.66,1.66,0,0,0-.13.7.77.77,0,0,1-.07.44,1,1,0,0,1-.22,0,1,1,0,0,0-.46-.38c-.12-.06-.19-.1-.21-.15a.35.35,0,0,0-.26-.2l-.29,0a2.09,2.09,0,0,0-1.09,0h-.05a.62.62,0,0,0-.67.29.39.39,0,0,0,0,.26.82.82,0,0,1,0,.18.89.89,0,0,0,0,.65.32.32,0,0,0,.21.15,3.86,3.86,0,0,0,.49.09,7.71,7.71,0,0,1,.86.2.66.66,0,0,0,.2,0,.6.6,0,0,1,.44.22,1.63,1.63,0,0,1-.58,1.12l0,0h0a.5.5,0,0,0-.36.18.87.87,0,0,1-.68-.17.31.31,0,0,0-.34-.07l-.16,0h-.13a1.82,1.82,0,0,0-.4,0,.29.29,0,0,0-.18.11,1.48,1.48,0,0,1-.26.21,1.08,1.08,0,0,0-.55.74.28.28,0,0,0,0,.2.86.86,0,0,0,.8.41,1.05,1.05,0,0,1,.21,0l.11,0h.21a.32.32,0,0,0,.13.08,2,2,0,0,0,.47.07.73.73,0,0,1,.37.08.32.32,0,0,0,.2.06,1,1,0,0,1,.46.2l.13.08s0,0,0,0a1.06,1.06,0,0,0-.08.35,1.13,1.13,0,0,0-.12.25.43.43,0,0,1-.07.14,1.86,1.86,0,0,0-.37.16.48.48,0,0,1-.25.09h0a.54.54,0,0,0-.79-.06s-.05,0-.05,0a.32.32,0,0,0-.3,0,.93.93,0,0,1-.39.05,1.28,1.28,0,0,0-.66.15l0,0a.59.59,0,0,0-.47-.08,1.12,1.12,0,0,0-.63,0,.76.76,0,0,1-.21,0,.31.31,0,0,0-.25,0,1.6,1.6,0,0,1-.44,0,2,2,0,0,0-.54,0,.29.29,0,0,0-.13.05.38.38,0,0,1-.26,0,1,1,0,0,0-.46,0,1.46,1.46,0,0,1-.35,0,.31.31,0,0,0-.22-.09h0a.29.29,0,0,0-.22.09.43.43,0,0,1-.13,0,.85.85,0,0,0-.35-.1.51.51,0,0,0-.24.07h-.13a.86.86,0,0,0-.29,0,.7.7,0,0,0-.35.08.52.52,0,0,1-.44-.07,1.57,1.57,0,0,0-.62-.15l-.13,0-.29.13a1.79,1.79,0,0,0-1.21-.06,2.78,2.78,0,0,0-1.07,0,.43.43,0,0,0-.53,0,.36.36,0,0,0-.25,0,.44.44,0,0,1-.19,0h-.21a.86.86,0,0,0-.58.19h-.08s-.06,0-.06,0a.41.41,0,0,0-.2-.14,1.11,1.11,0,0,0-.6,0,1.22,1.22,0,0,0-.63.07c-.18.05-.31.12-.44,0a1.34,1.34,0,0,0-.2-.29s-.09-.09-.09-.07a.36.36,0,0,0,0-.35,1,1,0,0,1-.15-.49s0-.07,0-.1a.43.43,0,0,1,.4-.07.28.28,0,0,0,.13,0l.17-.05c.32-.08.7-.16.85-.06a.32.32,0,0,0,.25.06.29.29,0,0,0,.2-.14,1.19,1.19,0,0,1,.76-.45.28.28,0,0,0,.18-.09l1.14-1.08a.33.33,0,0,0,.1-.23v-.1a.34.34,0,0,0-.26-.32,5.41,5.41,0,0,0-.91-.06h-.48a4,4,0,0,0-.92.1.89.89,0,0,1-.31.06.36.36,0,0,0-.25.06.25.25,0,0,1-.16,0l-.2,0a.34.34,0,0,0-.47.06.25.25,0,0,0-.15,0,.76.76,0,0,0-.62.42.44.44,0,0,0-.1-.15.29.29,0,0,0-.1-.07v-.13a.34.34,0,0,0,0-.17,1,1,0,0,1-.05-.24,1.55,1.55,0,0,0-.13-.49,1.41,1.41,0,0,0,.49.11l.14,0a.26.26,0,0,0,.21,0l.18-.1a.51.51,0,0,1,.26-.12.22.22,0,0,0,.16,0,1,1,0,0,0,.47-.26,1.94,1.94,0,0,0,.77-.44,1.55,1.55,0,0,0,.51-.22.35.35,0,0,0,.1-.11c.09-.16.23-.22.46-.3a1.24,1.24,0,0,0,.77-.53.32.32,0,0,0-.1-.44,1.6,1.6,0,0,0-1-.12,2.22,2.22,0,0,1-.44,0,.29.29,0,0,0-.24.07.72.72,0,0,1-.48.1l-.35,0a.44.44,0,0,0-.16.06l-.19.12a.28.28,0,0,0-.25,0,.53.53,0,0,1-.34,0,1.24,1.24,0,0,0-.61-.07,1,1,0,0,1,0-.23,1.93,1.93,0,0,0,.06-.49h0a.74.74,0,0,0,.17-.47.31.31,0,0,0,.25-.09c.25-.25.55-.26,1-.27a4.44,4.44,0,0,0,.63,0,.73.73,0,0,0,.49-.34s0,0,0-.05h0a.31.31,0,0,0,.33-.32.35.35,0,0,0-.07-.2,1.64,1.64,0,0,0-.76-.78.34.34,0,0,0-.4.09c-.06.07-.14.09-.33.1l-.27,0a.78.78,0,0,1-.26-.07,1,1,0,0,0-.74,0,.58.58,0,0,0-.68-.24,2.43,2.43,0,0,0-.89-.21h0a7.69,7.69,0,0,0-2.21.42.32.32,0,0,0-.21.3c0,.22,0,.44,0,.65a5,5,0,0,1,0,1,.28.28,0,0,0,.18.3s0,.06,0,.09l0,.14a.6.6,0,0,0,0,.46.39.39,0,0,0,0,.18.36.36,0,0,0,.11.24.91.91,0,0,1,.06.16.7.7,0,0,0,.33.5.55.55,0,0,0,0,.25,1.09,1.09,0,0,0,.2.55,1,1,0,0,1,.1.23,1.06,1.06,0,0,0,.09.63.84.84,0,0,1,.06.24.33.33,0,0,0,0,.16,1.17,1.17,0,0,1,.13.47c0,.14.06.29.11.45a1.59,1.59,0,0,0,.13.57.57.57,0,0,1,.08.26.26.26,0,0,0,0,.15,1.85,1.85,0,0,1,0,.27,1.2,1.2,0,0,0,.33.89.28.28,0,0,0,0,.18l-.06.1a.75.75,0,0,0-.17.43l-.17-.06a1.16,1.16,0,0,0-.59-.12.46.46,0,0,0-.18-.15.35.35,0,0,0-.11,0,2.06,2.06,0,0,0-1.27.2,1.13,1.13,0,0,0-.73.34,1.27,1.27,0,0,0-.75.42l-.17.14a1.66,1.66,0,0,0-.93.62,1.56,1.56,0,0,1-.32.31.27.27,0,0,0-.09.12c0,.08-.1.11-.25.17a1.2,1.2,0,0,0-.34.19.77.77,0,0,0-.18.7s0,.11,0,.12a.27.27,0,0,0-.12.09,1.1,1.1,0,0,0-.2.51c0,.15,0,.18-.08.21a.33.33,0,0,0-.1.43c0,.06,0,.15,0,.29a.78.78,0,0,0,.15.75,1.78,1.78,0,0,1,.29,1,.27.27,0,0,0,0,.12.72.72,0,0,0,.69.43.61.61,0,0,1,.19,0,.37.37,0,0,0,.16.07h.11a1.08,1.08,0,0,0,.78-.42,1.92,1.92,0,0,1,.22-.18.3.3,0,0,0,.11-.14,2.49,2.49,0,0,1,.54-.63,6,6,0,0,0,.43-.44.74.74,0,0,0,.38-.41l.07-.12c0-.05.1-.08.23-.12a.72.72,0,0,0,.6-.59v0h0a.32.32,0,0,0,.38-.2c0-.07.09-.1.31-.16a1.57,1.57,0,0,0,.44-.18,1.34,1.34,0,0,0,.77-.38c.21-.18.33-.26.53-.21a.55.55,0,0,0,.22,0h.11a.86.86,0,0,0,.48,0,2.44,2.44,0,0,0,.89-.11,1.62,1.62,0,0,1,.84-.05.3.3,0,0,0,.31-.09.46.46,0,0,1,.21-.09,2.41,2.41,0,0,0,.72.14,2.17,2.17,0,0,1,.52.08.33.33,0,0,0,.29,0,1.21,1.21,0,0,1,.77,0,2,2,0,0,0,.24,0,.22.22,0,0,0,.11,0,1.56,1.56,0,0,1,.11.12.77.77,0,0,0,.61.34h.08a.34.34,0,0,0,.19-.09c.07-.08.2-.09.39-.1a1.09,1.09,0,0,0,.55-.13.84.84,0,0,1,.65,0,.3.3,0,0,0,.24.07.35.35,0,0,0,.22-.12.5.5,0,0,1,.39-.21.47.47,0,0,0,0,.52l-.06,0a.6.6,0,0,0-.34.69h0s0,.07,0,.07h0a.33.33,0,0,0-.15.11,1,1,0,0,1-.59.37.3.3,0,0,0-.24.11l-.3.3a2.23,2.23,0,0,0-.5.57l-.21.15c-.13.1-.24.17-.33.15a.4.4,0,0,0-.19,0,.6.6,0,0,0-.38.55c-.25.73.31,1,.58,1.08a.9.9,0,0,1,.31.17.32.32,0,0,0,.37.06.92.92,0,0,0,.35-.36,1.16,1.16,0,0,1,.62-.2h.24a.5.5,0,0,0,.53-.32s0-.06,0-.09c0-.2.07-.23.39-.33a1.39,1.39,0,0,0,.79-.47v0a1,1,0,0,0,.36-.09c.15,0,.35,0,.54,0a1.59,1.59,0,0,1,.92.06,2.29,2.29,0,0,0,0,.25c0,.44,0,.59-.16.7a.32.32,0,0,0-.15.36.64.64,0,0,0-.21.46,3.12,3.12,0,0,0,.09.7l.06.33a.32.32,0,0,0,.12.21.35.35,0,0,1,.13.21.61.61,0,0,0,0,.64s-.06.09-.25.09a1.7,1.7,0,0,1-.26,0,.32.32,0,0,0-.27.06c-.13.11-.2.12-.23.12s-.05,0-.11-.07a.33.33,0,0,0-.23-.12.35.35,0,0,0-.24.1.48.48,0,0,1-.38.15,1,1,0,0,0-.5-.19.88.88,0,0,0-.72-.06.48.48,0,0,1-.15,0h0a.32.32,0,0,0-.35,0h0a.5.5,0,0,0-.57.18h-.11M210.28,49.41Z"/><path class="cls-1" d="M229.31,15.63a.13.13,0,0,1,.08.07.31.31,0,0,0-.41-.15l-.1-.06a.67.67,0,0,0-.64-.12h-.72c-.13-.15-.12-.19-.11-.2a.29.29,0,0,0,0-.24l.09-.08a.94.94,0,0,0,.23-.25.53.53,0,0,0,.22-.23.31.31,0,0,0,.22-.3v-.62a.49.49,0,0,0,.08-.47.32.32,0,0,0-.24-.21v0a.88.88,0,0,0,0-.34.68.68,0,0,0-.5-.48.51.51,0,0,1-.18-.08.3.3,0,0,0-.27-.09,1.8,1.8,0,0,0-1,.52,1,1,0,0,0-.67.39,1,1,0,0,0,0,.91c.08.16.09.21.06.29a.31.31,0,0,0,0,.19c.14.76-.06,1-.18,1.06l-.18.08a.32.32,0,0,0-.33,0,.68.68,0,0,1-.44,0l-.13,0a2.2,2.2,0,0,1-.37-.05,1.6,1.6,0,0,0-.72,0,1.82,1.82,0,0,0-.89,0,1.32,1.32,0,0,0-.82.63,1,1,0,0,1-.31.32.35.35,0,0,0-.22.25.33.33,0,0,0,.07.26.56.56,0,0,0,.23.56,3.18,3.18,0,0,0,1.41.39s.06.06.11.19a.89.89,0,0,0,.41.54,4.51,4.51,0,0,0,.37.39,2.11,2.11,0,0,1,.53.65.33.33,0,0,0,.14.17,1.31,1.31,0,0,1,0,.2.91.91,0,0,0,.11.64,1.19,1.19,0,0,1-.4.41l-.1.08a.33.33,0,0,0-.07.43c.05.07.05.13,0,.29a1.12,1.12,0,0,0,.06.54.23.23,0,0,1-.09.21.76.76,0,0,0-.62.29l-.12.1h0a.31.31,0,0,0-.48.17l-.1.29a.34.34,0,0,0,0,.1.5.5,0,0,0,.31.45.37.37,0,0,0,.2.12l.25.05a3.79,3.79,0,0,0,.68.1.91.91,0,0,0,.23,0,.74.74,0,0,0,.63-.49.69.69,0,0,1,.21-.28l.08-.08.15-.08a.79.79,0,0,0,.49-.48,2.49,2.49,0,0,1,.84-.72l.12.09a.85.85,0,0,0,.52.25c.11.09.21.2.32.31a3.54,3.54,0,0,0,.75.62.33.33,0,0,0,.17,0c.06,0,.11,0,.23.12a.81.81,0,0,0,.93.19.33.33,0,0,0,.16-.41,1.42,1.42,0,0,0-.26-.38.68.68,0,0,1-.21-.33,1.37,1.37,0,0,0-.64-.87c-.31-.24-.41-.34-.36-.59a.42.42,0,0,0-.13-.35.75.75,0,0,0-.48-.33h0a.68.68,0,0,1,.1-.24,1.58,1.58,0,0,0,.18-.46,10.58,10.58,0,0,0,.88-.89l.52-.58a2.53,2.53,0,0,0,.5-.48c.22-.26.37-.42.56-.45a1.3,1.3,0,0,0,.68,0,1,1,0,0,1,.25,0,.22.22,0,0,0,.11,0,.32.32,0,0,0,.33-.32.34.34,0,0,0-.05-.17.58.58,0,0,0-.2-.25l-.06-.06a.31.31,0,0,0-.22-.09,3.35,3.35,0,0,1-1.26-.34.81.81,0,0,0-.42-.09m-2.87,3.12a1.19,1.19,0,0,0-.31.54l0,.05a.61.61,0,0,0-.09-.28.52.52,0,0,0-.34-.18.7.7,0,0,1-.43-.24,2.55,2.55,0,0,0-.06-.59,1.7,1.7,0,0,1-.05-.5.32.32,0,0,0-.09-.26c-.06-.06-.06-.13,0-.32a1.17,1.17,0,0,1,.53-.11,1.86,1.86,0,0,0,.69-.12,2.81,2.81,0,0,0,.76.08c.47,0,.71,0,.83.23-.07.11-.13.23-.2.35A3.23,3.23,0,0,1,226.53,18.75Zm2.93-2.8Z"/><polygon class="cls-1" points="82.62 64.98 82.62 56.86 87.52 56.86 87.52 57.95 84.05 57.95 84.05 60.37 87.52 60.37 87.52 61.43 84.05 61.43 84.05 64.98 82.62 64.98 82.62 64.98"/><path class="cls-2" d="M96.65,61.33a2.17,2.17,0,0,0-.87-1.17,2.61,2.61,0,0,0-1.49-.42,2.7,2.7,0,0,0-1.54.43,2.12,2.12,0,0,0-.9,1.16Zm-4.84,1a2,2,0,0,0,.85,1.25,2.78,2.78,0,0,0,1.61.47,2.7,2.7,0,0,0,1.22-.26,2.12,2.12,0,0,0,.88-.74H97.9a3.71,3.71,0,0,1-1.45,1.56,4.29,4.29,0,0,1-2.17.54,4.63,4.63,0,0,1-1.53-.24,3.81,3.81,0,0,1-1.25-.72,3.36,3.36,0,0,1-.83-1.05,2.7,2.7,0,0,1-.29-1.22,2.65,2.65,0,0,1,.27-1.21,3.16,3.16,0,0,1,.79-1,3.84,3.84,0,0,1,1.27-.76,4.81,4.81,0,0,1,3.38.12,3.62,3.62,0,0,1,1.4,1.05A2.82,2.82,0,0,1,98,61a3.61,3.61,0,0,1,.16,1.14v.17Z"/><path class="cls-1" d="M102.51,65h-1.36V58.85h1.3v.7a2.76,2.76,0,0,1,.94-.61,3.21,3.21,0,0,1,1.16-.19,3.25,3.25,0,0,1,2.27.71,2.61,2.61,0,0,1,.79,2V65h-1.36V61.73a2,2,0,0,0-.45-1.45,2.24,2.24,0,0,0-2.84.08,2.92,2.92,0,0,0-.45,1.83V65Z"/><path class="cls-2" d="M111.12,65.47h1.45a2,2,0,0,0,.82.65,3.2,3.2,0,0,0,3-.33,1.79,1.79,0,0,0,.7-1.48v-.08a3.71,3.71,0,0,1-1.16.66,4,4,0,0,1-1.36.23,4.28,4.28,0,0,1-2.82-.93,2.9,2.9,0,0,1-.84-3.53,3,3,0,0,1,.8-1,3.8,3.8,0,0,1,1.24-.72,4.84,4.84,0,0,1,1.54-.23,4.53,4.53,0,0,1,1.41.22,3.76,3.76,0,0,1,1.2.68v-.74h1.36V64a3.14,3.14,0,0,1-1,2.5,4,4,0,0,1-2.8.9,4.6,4.6,0,0,1-2.21-.49,2.89,2.89,0,0,1-1.31-1.41Zm.91-3.59a1.94,1.94,0,0,0,.76,1.56,2.78,2.78,0,0,0,1.85.63,2.65,2.65,0,0,0,1.76-.64,1.86,1.86,0,0,0,.76-1.48,1.94,1.94,0,0,0-.76-1.54,2.66,2.66,0,0,0-1.79-.65,2.79,2.79,0,0,0-1.82.62,1.84,1.84,0,0,0-.76,1.5Z"/><path class="cls-1" d="M136.81,63A4.19,4.19,0,0,1,135,64.57a5.92,5.92,0,0,1-2.66.57,6,6,0,0,1-2.07-.35,5.23,5.23,0,0,1-1.7-1,4,4,0,0,1-1-1.31,3.78,3.78,0,0,1-.33-1.57,3.4,3.4,0,0,1,.4-1.61,4.5,4.5,0,0,1,1.16-1.38,5.15,5.15,0,0,1,1.61-.88,6.49,6.49,0,0,1,4.6.29A4,4,0,0,1,136.81,59h-1.69a3,3,0,0,0-1.18-.81,4.33,4.33,0,0,0-1.58-.27,4,4,0,0,0-1.34.22,3.29,3.29,0,0,0-1.13.63,3,3,0,0,0-.8,1,2.59,2.59,0,0,0-.29,1.16,2.84,2.84,0,0,0,.26,1.2,2.65,2.65,0,0,0,.75,1,3.72,3.72,0,0,0,1.18.68,4.29,4.29,0,0,0,1.37.24,4.18,4.18,0,0,0,1.54-.27A2.86,2.86,0,0,0,135,63Z"/><path class="cls-1" d="M141.39,65H140V56.86h1.36v2.69a2,2,0,0,1,.85-.6,3.51,3.51,0,0,1,1.22-.2,3,3,0,0,1,2.13.71,2.62,2.62,0,0,1,.76,2V65H145V61.82a2.29,2.29,0,0,0-.42-1.51,1.59,1.59,0,0,0-1.3-.5,2.16,2.16,0,0,0-.94.2,1.61,1.61,0,0,0-.66.58,1.49,1.49,0,0,0-.21.56,5.21,5.21,0,0,0-.07,1V65Z"/><path class="cls-2" d="M151.11,58.13h-1.35V56.86h1.35v1.27ZM149.76,65V58.85h1.35V65Z"/><path class="cls-2" d="M155.56,61.88a2,2,0,0,0,.75,1.56,2.82,2.82,0,0,0,1.85.63,2.62,2.62,0,0,0,1.76-.64,1.87,1.87,0,0,0,.77-1.48,2,2,0,0,0-.76-1.54,2.66,2.66,0,0,0-1.79-.65,2.83,2.83,0,0,0-1.83.62,1.86,1.86,0,0,0-.75,1.5Zm5.06,3.1v-.75a3.83,3.83,0,0,1-1.16.66,4.1,4.1,0,0,1-1.37.23,4.27,4.27,0,0,1-2.81-.93,2.85,2.85,0,0,1-1.12-2.31,2.7,2.7,0,0,1,.28-1.22,3,3,0,0,1,.8-1,3.8,3.8,0,0,1,1.24-.72,4.82,4.82,0,0,1,1.53-.23,4.66,4.66,0,0,1,1.43.22,3.78,3.78,0,0,1,1.18.68v-.74H162V65Z"/><path class="cls-1" d="M171.18,56.86h1.44V62a2.26,2.26,0,0,0,.41,1.54,1.84,1.84,0,0,0,1.37.43,1.67,1.67,0,0,0,1.31-.44,2.31,2.31,0,0,0,.38-1.53V56.86h1.45V62a5.76,5.76,0,0,1-.11,1.27,1.94,1.94,0,0,1-.38.76,2.8,2.8,0,0,1-1.1.83,3.9,3.9,0,0,1-1.52.27,4.51,4.51,0,0,1-1.62-.26,2.94,2.94,0,0,1-1.13-.83,1.85,1.85,0,0,1-.38-.72,5.14,5.14,0,0,1-.12-1.32V56.86Z"/><path class="cls-1" d="M182.29,65h-1.36V58.85h1.31v.7a2.63,2.63,0,0,1,.93-.61,3.89,3.89,0,0,1,3.44.52,2.6,2.6,0,0,1,.78,2V65H186V61.73a2,2,0,0,0-.45-1.45,1.8,1.8,0,0,0-1.37-.47,1.78,1.78,0,0,0-1.47.55,2.92,2.92,0,0,0-.46,1.83V65Z"/><path class="cls-2" d="M192.14,58.13H190.8V56.86h1.34v1.27ZM190.8,65V58.85h1.34V65Z"/><polygon class="cls-1" points="198.68 64.98 197.66 64.98 194.8 58.85 196.26 58.85 198.24 63.32 200.27 58.85 201.69 58.85 198.68 64.98 198.68 64.98"/><path class="cls-2" d="M210.17,61.33a2.17,2.17,0,0,0-.87-1.17,2.61,2.61,0,0,0-1.49-.42,2.73,2.73,0,0,0-1.55.43,2.21,2.21,0,0,0-.9,1.16Zm-4.85,1a2.08,2.08,0,0,0,.85,1.25,2.83,2.83,0,0,0,1.62.47,2.73,2.73,0,0,0,1.22-.26,2.12,2.12,0,0,0,.88-.74h1.53A3.71,3.71,0,0,1,210,64.6a4.3,4.3,0,0,1-2.18.54,4.61,4.61,0,0,1-1.52-.24,3.81,3.81,0,0,1-1.25-.72,3.22,3.22,0,0,1-.83-1.05,2.7,2.7,0,0,1-.29-1.22,2.65,2.65,0,0,1,.27-1.21,3.16,3.16,0,0,1,.79-1,3.84,3.84,0,0,1,1.27-.76,4.81,4.81,0,0,1,3.38.12,3.7,3.7,0,0,1,1.4,1.05,3,3,0,0,1,.49.92,3.61,3.61,0,0,1,.16,1.14v.17Z"/><path class="cls-1" d="M216,65h-1.36V58.85H216v.71a2,2,0,0,1,.77-.61,2.43,2.43,0,0,1,1-.2V59.9a2,2,0,0,0-1.31.44,1.65,1.65,0,0,0-.39,1.23V65Z"/><path class="cls-1" d="M220,63h1.27a1.09,1.09,0,0,0,.33.81,1.16,1.16,0,0,0,.83.31,1.21,1.21,0,0,0,.78-.24.73.73,0,0,0,.3-.6.77.77,0,0,0-.21-.55,1.81,1.81,0,0,0-.7-.38l-.47-.14a5.51,5.51,0,0,1-1-.39,1.81,1.81,0,0,1-.6-.6,1.56,1.56,0,0,1-.19-.76,1.61,1.61,0,0,1,.64-1.27,2.4,2.4,0,0,1,1.57-.52,2.35,2.35,0,0,1,1.53.46,1.7,1.7,0,0,1,.62,1.28h-1.3a.75.75,0,0,0-.28-.53,1,1,0,0,0-.64-.19.88.88,0,0,0-.6.21.6.6,0,0,0-.25.5c0,.34.37.62,1.1.84l.48.15a2.71,2.71,0,0,1,1.23.71,1.64,1.64,0,0,1,.37,1.13,1.66,1.66,0,0,1-.68,1.37,2.66,2.66,0,0,1-1.73.55,2.45,2.45,0,0,1-1.69-.57A2.2,2.2,0,0,1,220,63Z"/><path class="cls-2" d="M229.14,58.13h-1.35V56.86h1.35v1.27ZM227.79,65V58.85h1.35V65Z"/><polygon class="cls-1" points="233.03 64.98 233.03 59.86 231.97 59.86 231.97 58.85 233.03 58.85 233.03 56.86 234.38 56.86 234.38 58.85 235.44 58.85 235.44 59.86 234.38 59.86 234.38 64.98 233.03 64.98 233.03 64.98"/><polygon class="cls-1" points="237.47 58.85 238.93 58.85 240.96 63.41 243.16 58.85 244.62 58.85 240.57 66.97 239.14 66.97 240.19 64.81 237.47 58.85 237.47 58.85"/><rect class="cls-1" x="80.05" y="68.58" width="165.95" height="0.87"/><rect class="cls-1" x="80.05" y="53.51" width="165.95" height="0.87"/></svg>